<svg xmlns="http://www.w3.org/2000/svg" width="48" height="48" viewBox="9.5 9.5 48 48">
  <path fill="#DDA77B" d="M23.966 34.047c-.042 0 .456 1.058.47 1.058 1.086 1.95 3.18 3.16 6.714 3.497-.504.378-1.11 1.096-1.194 1.925-.634.405-1.91.54-2.9.23-1.39-.433-1.92-3.15-4-2.763-.45.083-.362.377.028.626.634.406 1.23.913 1.69 1.993.355.83 1.098 2.31 3.448 2.31.932 0 1.586-.11 1.586-.11s.018 2.115.018 2.938c0 .95-1.296 1.22-1.296 1.68 0 .18.43.2.774.2.68 0 2.098-.56 2.098-1.55 0-.78.013-3.42.013-3.88 0-1.003.546-1.322.546-1.322s.07 5.377-.13 6.1c-.23.847-.65.727-.65 1.105 0 .56 1.71.14 2.27-1.1.44-.96.25-6.234.25-6.234l.47-.01s.028 2.416.01 3.52c-.014 1.144-.093 2.59.595 3.27.45.45 1.914 1.236 1.914.517 0-.417-.8-.76-.8-1.89V40.95c.64 0 .542 1.71.542 1.71l.047 3.18s-.145 1.157 1.265 1.64c.495.173 1.56.218 1.61-.07.05-.29-1.28-.72-1.295-1.615-.008-.547.025-.866.025-3.243s-.323-3.255-1.45-3.955c3.475-.352 5.625-1.2 6.67-3.475.084.002.43-1.062.384-1.062.236-.858.363-1.874.39-3.077-.008-3.26-1.588-4.414-1.89-4.956.446-2.47-.077-3.594-.318-3.98-.897-.314-3.116.81-4.33 1.6-1.976-.57-6.154-.514-7.72.15-2.89-2.046-4.42-1.733-4.42-1.733s-.99 1.75-.26 4.313c-.952 1.197-1.66 2.044-1.66 4.29-.002 1.266.15 2.4.49 3.39zm9.598 22.803c-12.767 0-23.117-10.406-23.117-23.243s10.35-23.243 23.117-23.243S56.68 20.77 56.68 33.607 46.33 56.85 33.565 56.85z"/>
</svg>
