<svg xmlns="http://www.w3.org/2000/svg" width="48px" height="48px">
	<g>
		<path d="M25.409,20.173v-0.048c-0.009,0.016-0.023,0.033-0.032,0.048
			H25.409z"/>
		<path d="M24,1.123C11.143,1.123,0.72,11.365,0.72,24
			c0,12.634,10.423,22.877,23.28,22.877S47.28,36.635,47.28,24C47.28,11.366,36.857,1.123,24,1.123z M17.589,32.897h-5.034V18.016
			h5.034V32.897L17.589,32.897z M15.073,15.985h-0.034c-1.689,0-2.783-1.144-2.783-2.573c0-1.46,1.127-2.571,2.849-2.571
			c1.723,0,2.782,1.111,2.816,2.571C17.921,14.841,16.828,15.985,15.073,15.985z M35.744,32.897H30.71v-7.962
			c0-2-0.729-3.365-2.551-3.365c-1.391,0-2.219,0.92-2.584,1.809c-0.133,0.318-0.167,0.761-0.167,1.206v8.311h-5.035
			c0,0,0.067-13.485,0-14.881h5.035v2.109c0.669-1.012,1.864-2.459,4.538-2.459c3.314,0,5.797,2.127,5.798,6.698V32.897
			L35.744,32.897L35.744,32.897z"/>
	</g>
</svg>
