<?xml version="1.0" encoding="utf-8"?>
<!-- Generator: Adobe Illustrator 17.0.2, SVG Export Plug-In . SVG Version: 6.00 Build 0)  -->
<!DOCTYPE svg PUBLIC "-//W3C//DTD SVG 1.1//EN" "http://www.w3.org/Graphics/SVG/1.1/DTD/svg11.dtd">
<svg version="1.1" id="Layer_1" xmlns="http://www.w3.org/2000/svg" xmlns:xlink="http://www.w3.org/1999/xlink" x="0px" y="0px"
	 width="48px" height="48px" viewBox="9.5 9.5 48 48" enable-background="new 9.5 9.5 48 48" xml:space="preserve">
<path fill="#DDA77B" stroke="none" stroke-miterlimit="10" d="M23.966,34.047c-0.042-0.001,0.456,1.058,0.47,1.058
	c1.086,1.949,3.181,3.161,6.714,3.497c-0.504,0.378-1.11,1.096-1.194,1.925c-0.634,0.405-1.909,0.539-2.9,0.23
	c-1.389-0.433-1.921-3.15-4.001-2.763c-0.45,0.083-0.361,0.377,0.029,0.626c0.634,0.406,1.231,0.913,1.691,1.993
	c0.354,0.829,1.097,2.31,3.447,2.31c0.932,0,1.586-0.111,1.586-0.111s0.018,2.116,0.018,2.939c0,0.949-1.296,1.216-1.296,1.673
	c0,0.181,0.429,0.198,0.774,0.198c0.681,0,2.098-0.562,2.098-1.548c0-0.783,0.013-3.418,0.013-3.879
	c0-1.007,0.546-1.326,0.546-1.326s0.068,5.377-0.13,6.099c-0.233,0.848-0.653,0.728-0.653,1.106c0,0.562,1.706,0.139,2.272-1.097
	c0.437-0.96,0.246-6.237,0.246-6.237l0.466-0.009c0,0,0.026,2.415,0.01,3.519c-0.016,1.144-0.095,2.589,0.593,3.271
	c0.452,0.449,1.914,1.235,1.914,0.516c0-0.418-0.801-0.761-0.801-1.891v-5.203c0.64,0,0.544,1.711,0.544,1.711l0.047,3.179
	c0,0-0.142,1.158,1.268,1.642c0.497,0.173,1.56,0.218,1.61-0.07c0.05-0.289-1.281-0.719-1.293-1.615
	c-0.008-0.548,0.025-0.867,0.025-3.244c0-2.377-0.323-3.256-1.449-3.956c3.474-0.353,5.624-1.202,6.671-3.476
	c0.082,0.002,0.428-1.062,0.382-1.062c0.235-0.858,0.362-1.874,0.387-3.077c-0.006-3.262-1.586-4.415-1.889-4.957
	c0.447-2.469-0.076-3.593-0.317-3.978c-0.895-0.315-3.114,0.81-4.327,1.601c-1.976-0.571-6.154-0.516-7.72,0.147
	c-2.89-2.045-4.42-1.732-4.42-1.732s-0.989,1.75-0.261,4.312c-0.951,1.198-1.66,2.045-1.66,4.291
	C23.475,31.925,23.626,33.058,23.966,34.047z M33.564,56.85c-12.767,0-23.117-10.406-23.117-23.243s10.35-23.243,23.117-23.243
	s23.117,10.406,23.117,23.243S46.331,56.85,33.564,56.85z"/>
</svg>
