<?xml version="1.0" encoding="utf-8"?>
<!-- Generator: Adobe Illustrator 17.0.2, SVG Export Plug-In . SVG Version: 6.00 Build 0)  -->
<!DOCTYPE svg PUBLIC "-//W3C//DTD SVG 1.1//EN" "http://www.w3.org/Graphics/SVG/1.1/DTD/svg11.dtd">
<svg version="1.1" id="Layer_1" xmlns="http://www.w3.org/2000/svg" xmlns:xlink="http://www.w3.org/1999/xlink" x="0px" y="0px"
	 width="640px" height="480px" viewBox="0 0 640 480" enable-background="new 0 0 640 480" xml:space="preserve">
<g>
	<path fill="#F2E9E2" d="M330.408,446.667c3.966-3.03,3.966-8.333,2.644-13.636c9.915-6.061,18.507-8.333,29.083-12.879
		c9.254-3.788,28.422-7.576,30.405-20.455c0,0-2.644,0.758-1.983,0.758c11.898,3.03,33.049-6.818,42.964-16.667
		c5.949-6.061,11.898-23.485-2.644-21.97c19.168-1.515,66.098-10.606,71.386-34.848c17.846-0.758,55.522-21.212,35.032-45.455
		c15.203-13.636,25.117-31.061,15.864-52.273c-6.61-13.636-5.949-10.606-1.322-25c5.288-14.394,7.271-46.97-7.271-55.303
		c7.932-6.818,7.932-16.667,3.305-25.758c-8.593-16.667-23.134-16.667-36.354-21.212c10.576-15.152-3.966-62.879-21.812-46.97
		c-0.661-9.091-7.932-15.909-15.203-18.939c-10.576-4.545-25.778-1.515-35.693,2.273c-6.61,2.273-15.203,12.121-21.151,12.879
		c-6.61,0.758-13.22-7.576-21.151-8.333c-11.237-1.515-20.49,5.303-25.778,15.909c-13.881-22.727-40.32,7.576-42.303,26.515
		c-11.237-28.788-31.568,14.592-31.568,35.804l-2.062,5.614c2.062-29.548-28.502-38.388-36.434-27.782
		c0.661-18.182-7.932-45.455-24.456-52.273c-11.898-5.303-19.829,0-23.795,12.879c-15.203-9.091-45.608-24.242-50.235,6.818
		c-16.525-8.333-64.776-15.909-50.235,22.727C81.88,78.485,75.27,144.394,91.133,160.303c-24.456,9.848-36.354,37.121-25.117,62.879
		c3.966,8.333,3.966,9.091,4.627,18.939c0.661,10.606,3.305,18.939,13.881,19.697c-6.61,48.485,43.625,81.818,80.64,73.485
		c-4.627,13.636-3.966,30.303,6.61,40.909c7.932,8.333,27.761,15.152,37.015,5.303c0.661,24.242,37.676,12.121,52.878,20.455
		c15.864,9.091,33.049,27.273,53.539,18.182c-11.898,15.152,6.61,18.182,12.559,25.758"/>
</g>
</svg>
