<?xml version="1.0" encoding="utf-8"?>
<!-- Generator: Adobe Illustrator 17.0.2, SVG Export Plug-In . SVG Version: 6.00 Build 0)  -->
<!DOCTYPE svg PUBLIC "-//W3C//DTD SVG 1.1//EN" "http://www.w3.org/Graphics/SVG/1.1/DTD/svg11.dtd">
<svg version="1.1" id="Layer_1" xmlns="http://www.w3.org/2000/svg" xmlns:xlink="http://www.w3.org/1999/xlink" x="0px" y="0px"
	 width="48px" height="48px" viewBox="0 0 48 48" enable-background="new 0 0 48 48" xml:space="preserve">
<path fill="#71677C" stroke="none" stroke-miterlimit="10" d="M31.155,19.049v-0.004c0.387,0,0.776,0.007,1.163-0.002
	c0.499-0.013,0.905-0.44,0.905-0.938c0-0.743,0-1.485,0-2.228c0-0.533-0.422-0.957-0.954-0.957c-0.742,0-1.483-0.001-2.225,0
	c-0.531,0.001-0.954,0.425-0.954,0.958c-0.001,0.736-0.003,1.472,0.003,2.208c0.001,0.11,0.021,0.224,0.056,0.329
	c0.134,0.392,0.492,0.632,0.933,0.634C30.439,19.05,30.798,19.049,31.155,19.049z M24,20.005c-2.611-0.002-4.734,2.097-4.77,4.693
	c-0.037,2.667,2.099,4.78,4.661,4.834c2.666,0.058,4.822-2.07,4.878-4.658C28.826,22.207,26.671,20.002,24,20.005z M14.775,22.546
	v0.063c0,3.48-0.001,6.96,0,10.44c0,0.501,0.434,0.931,0.936,0.931c5.525,0.001,11.051,0.001,16.575,0
	c0.507,0,0.938-0.429,0.938-0.934c0.001-3.476,0-6.952,0-10.427v-0.072h-2.246c0.318,1.012,0.414,2.043,0.29,3.094
	c-0.125,1.051-0.464,2.028-1.016,2.931c-0.551,0.903-1.269,1.654-2.145,2.249c-2.271,1.546-5.264,1.681-7.675,0.33
	c-1.219-0.682-2.176-1.633-2.844-2.862c-0.995-1.829-1.154-3.749-0.57-5.743C16.27,22.546,15.528,22.546,14.775,22.546z
	 M33.419,36.528c0.123-0.02,0.245-0.037,0.367-0.064c0.962-0.204,1.748-1.006,1.936-1.971c0.02-0.106,0.035-0.21,0.052-0.315V15.363
	c-0.017-0.102-0.03-0.206-0.05-0.309c-0.207-1.054-1.078-1.871-2.146-2.018c-0.046-0.005-0.087-0.015-0.131-0.023H14.555
	c-0.113,0.02-0.228,0.036-0.341,0.062c-1.044,0.237-1.814,1.076-1.964,2.132c-0.006,0.044-0.016,0.088-0.022,0.131v18.866
	c0.021,0.118,0.038,0.24,0.065,0.359c0.231,1.02,1.101,1.808,2.137,1.943c0.05,0.006,0.101,0.016,0.151,0.023L33.419,36.528
	L33.419,36.528z M24,47.122c-12.786,0-23.151-10.351-23.151-23.123S11.214,0.878,24,0.878s23.151,10.351,23.151,23.122
	S36.786,47.122,24,47.122z"/>
</svg>
