<?xml version="1.0" encoding="utf-8"?>
<!DOCTYPE svg PUBLIC "-//W3C//DTD SVG 1.1//EN" "http://www.w3.org/Graphics/SVG/1.1/DTD/svg11.dtd">
<svg version="1.1" id="Layer_1" xmlns="http://www.w3.org/2000/svg" xmlns:xlink="http://www.w3.org/1999/xlink" x="0px" y="0px"
	 width="353px" height="628px" viewBox="0 0 353 628" enable-background="new 0 0 353 628" xml:space="preserve">
<g>
	<g>

			<radialGradient id="SVGID_1_" cx="133.1896" cy="345.1218" r="192.2171" gradientTransform="matrix(1.2531 0 0 2.5981 9.5988 -582.6654)" gradientUnits="userSpaceOnUse">
			<stop  offset="0" style="stop-color:#F4D1CF"/>
			<stop  offset="0.5109" style="stop-color:#F2CFCD"/>
			<stop  offset="0.695" style="stop-color:#ECC8C7"/>
			<stop  offset="0.8261" style="stop-color:#E2BDBC"/>
			<stop  offset="0.9315" style="stop-color:#D4ACAD"/>
			<stop  offset="1" style="stop-color:#C69C9F"/>
		</radialGradient>
		<path fill="url(#SVGID_1_)" d="M47.742,0C21.588,0,0,14.938,0,43.405v303.369v5.515v227.95C0,608.706,21.588,628,47.742,628
			h259.487C333.384,628,353,611.407,353,582.94V352.289v-5.515V46.106C353,17.639,330.878,0,304.723,0H47.742z"/>
	</g>
	<path fill="#FFFFFF" d="M52.786,7C27.748,7,7,22.025,7,49.909v295.829v5.402v225.924C7,604.948,27.748,621,52.786,621h248.406
		C326.229,621,346,604.948,346,577.064V351.14v-5.402V49.909C346,22.025,326.229,7,301.192,7H52.786z"/>
</g>
<rect x="17" y="61" fill="#1C1A1B" width="320" height="490"/>
<g>

		<radialGradient id="SVGID_2_" cx="150.8554" cy="581.3859" r="18.0008" gradientTransform="matrix(1.2777 0 0 1.2777 -17.3951 -157.0038)" gradientUnits="userSpaceOnUse">
		<stop  offset="0" style="stop-color:#F4D1CF"/>
		<stop  offset="0.5109" style="stop-color:#F2CFCD"/>
		<stop  offset="0.695" style="stop-color:#ECC8C7"/>
		<stop  offset="0.8261" style="stop-color:#E2BDBC"/>
		<stop  offset="0.9315" style="stop-color:#D4ACAD"/>
		<stop  offset="1" style="stop-color:#C69C9F"/>
	</radialGradient>
	<circle fill="url(#SVGID_2_)" cx="175.356" cy="585.843" r="23"/>
	<path fill="#FFFFFF" d="M194.5,586.232c0,10.818-8.507,18.413-19,18.413s-19-7.595-19-18.413s8.507-19.587,19-19.587
		S194.5,575.414,194.5,586.232z"/>
</g>
<ellipse fill="#1C1A1B" cx="139.92" cy="39.297" rx="2.962" ry="3.043"/>
<path fill="#1C1A1B" d="M198.428,39.5c0,1.496-1.431,2.5-3.196,2.5h-35.614c-1.765,0-3.196-1.004-3.196-2.5l0,0
	c0-1.496,1.431-2.5,3.196-2.5h35.614C196.997,37,198.428,38.004,198.428,39.5L198.428,39.5z"/>
<ellipse fill="#1C1A1B" cx="177.25" cy="23.67" rx="2.507" ry="2.576"/>
</svg>
