<?xml version="1.0" encoding="utf-8"?>
<!-- Generator: Adobe Illustrator 21.0.2, SVG Export Plug-In . SVG Version: 6.00 Build 0)  -->
<svg version="1.1" id="Chloe" xmlns="http://www.w3.org/2000/svg" xmlns:xlink="http://www.w3.org/1999/xlink" x="0px" y="0px"
	 viewBox="0 0 480 530" style="enable-background:new 0 0 480 530;" xml:space="preserve">
<style type="text/css">
	.st0{fill:#F2F2F2;stroke:#000000;stroke-miterlimit:10;}
	.st1{fill:#28100A;stroke:#000000;stroke-miterlimit:10;}
	.st2{stroke:#000000;stroke-miterlimit:10;}
	.st3{fill:#FFFFFF;}
	.st4{fill:#BC8875;stroke:#000000;stroke-width:0.75;stroke-miterlimit:10;}
	.st5{fill:#FFFFFF;stroke:#FFFFFF;stroke-miterlimit:10;}
	.st6{fill:#231007;stroke:#231007;stroke-width:2;stroke-miterlimit:10;}
	.st7{fill:#BF7B7B;stroke:#000000;stroke-width:0.75;stroke-miterlimit:10;}
	.st8{fill:none;stroke:#000000;stroke-width:0.75;stroke-miterlimit:10;}
	.st9{fill:none;stroke:#000000;stroke-width:0.25;stroke-miterlimit:10;}
	.st10{fill:none;stroke:#000000;stroke-miterlimit:10;}
	.st11{fill:none;stroke:#000000;stroke-width:0.5;stroke-miterlimit:10;}
	.st12{fill:#0C0C0C;}
	.st13{fill:#111010;}
	.st14{fill:#070707;}
	.st15{fill:#1C1A1A;}
	.st16{fill:none;}
	.st17{fill:#231007;}
</style>
<ellipse id="Eyes_Outer" class="st0" cx="242.1" cy="195.4" rx="141.2" ry="142.9"/>
<g id="Eyes_Inner">
	<g id="Eye_R_1_">
		<ellipse class="st1" cx="283.5" cy="216.1" rx="8.9" ry="8.7"/>
		<g>
			<path class="st2" d="M284.7,213.9c1.2,0.3,2.1,1.4,1.8,2.4c-0.3,1-1.5,1.6-2.7,1.2c-1.2-0.3-2.1-1.4-1.8-2.4
				C282.2,214.2,283.5,213.6,284.7,213.9z"/>
		</g>
		<g>
			<path class="st3" d="M287.3,216.6c-0.1,0.6-0.9,0.9-1.7,0.7c-0.8-0.2,0.7-0.3,0.8-0.9c0.1-0.6-1.1-1.3-0.4-1.2
				C287,215.4,287.5,216,287.3,216.6z"/>
		</g>
	</g>
	<g id="Eye_R">
		<ellipse class="st1" cx="197.4" cy="216.1" rx="8.9" ry="8.7"/>
		<g>
			<path class="st2" d="M198.6,213.9c1.2,0.3,2.1,1.4,1.8,2.4c-0.3,1-1.5,1.6-2.7,1.2c-1.2-0.3-2.1-1.4-1.8-2.4
				S197.4,213.6,198.6,213.9z"/>
		</g>
		<g>
			<path class="st3" d="M201.3,216.6c-0.1,0.6-0.9,0.9-1.7,0.7c-0.8-0.2,0.7-0.3,0.8-0.9c0.1-0.6-1.1-1.3-0.4-1.2
				C200.9,215.4,201.4,216,201.3,216.6z"/>
		</g>
	</g>
</g>
<path id="Neck" class="st4" d="M192.2,335.4c7.3,23.3,11.7,46.6,4.2,66.9c-7.5,20.3-22.3,38.7-51.1,55.6l49.2,13l48,0.5l38.2-2.2
	l48.2-10.2c-9.2-1.6-28.1-30.6-28.9-32.7c-7.3-18.5-11.6-42.6-12.6-66.4c-0.2-5-0.2-3.3,0.6-7.5c5-16.6,10.9-25.7,17.6-43.8"/>
<path id="Face" class="st4" d="M337.1,181.1c-1.3-15.6-4.6-29.2-14.2-41.9s-21-22.9-33.7-30c-12.7-7.1-32.7-11-47.3-11
	c-14.6,0-33.4,3.9-46.1,11c-12.7,7.1-24.1,17.4-33.7,30c-9.6,12.7-12.9,26.3-14.2,41.9c-1.3,15.6,2.5,33.3,1,54.3
	c-3.1,10.5,0.7,39.7,3.7,47.9c6.1,16.1,35.5,52.4,46.9,64.3c24.6,30.9,34.1,20.9,42.9,21.9c7.9,0.8,17.3,6.4,35.1-15.6
	c15.4-17.8,42.7-50.5,48.7-66.6s13.2-33.6,7.8-52C332.6,214.4,338.4,196.7,337.1,181.1z M215,219.7c-1.4-0.6-4.9,0.6-7.7,1.8
	c-0.8,0.3-5.9,2.5-9.2,2.5c-3,0-6.8-0.5-9.9-1.8c-3.1-1.3-4.1-1.7-6.5-3.2c-2.4-1.5-2.4-3.1-2.6-3.3c2.8-2.5,4.3-3.4,7.8-4.7
	c3.6-1.4,7-1.9,10.7-1.5c2.4,0.2,4.7,0.1,8.5,1.6c3.6,1.4,6.1,3.5,11.3,8.8C217.8,220.1,216.5,220.3,215,219.7z M298.7,219
	c-2.4,1.5-3.4,1.9-6.5,3.2c-3.1,1.3-6.8,1.8-9.9,1.8c-3.2,0-8.4-2.2-9.2-2.5c-2.8-1.2-6.3-2.4-7.7-1.8c-1.5,0.7-2.8,0.4-2.4,0.2
	c5.2-5.3,7.7-7.3,11.3-8.8c3.7-1.5,6.1-1.4,8.5-1.6c3.7-0.3,7.1,0.2,10.7,1.5c3.4,1.3,5,2.1,7.8,4.7c0,0,0,0,0,0l0.5,0.5
	c-0.2-0.2-0.3-0.3-0.5-0.5C301.1,215.9,301.1,217.5,298.7,219z"/>
<path id="Nose" class="st4" d="M215.8,265.7c-3.9,7.4,4.2,12.7,7.5,12c11.7-1.3,10.1,6,18.2,5.6 M240.8,283.3
	c8.1,0.4,6.5-6.9,18.2-5.6c3.2,0.8,11.4-4.6,7.5-12"/>
<path id="Teeth" class="st5" d="M242,309.9c-14.2,0-38.9-7.2-47.4-14.9c10.8,9.9,29.4,24.7,45.5,26.3l3.1-0.1
	c16.1-1.7,33.1-17.3,43.9-27.2c-8.5,7.8-32.4,15.9-46.6,15.9"/>
<g id="Brows">
	<path class="st6" d="M182.8,186.3c-4.1,1-11.7,4.7-17.7,6.8c5-4.4,12.9-12.4,15.6-12.2c12.3,1.3,24.7,1.5,37.5,2.6
		c3.8,0.3,3.3,11.9-0.1,11.7C206.6,192.3,182.3,185.2,182.8,186.3z"/>
	<path class="st6" d="M295.5,189c-3-0.7,11.4,5.5,17.2,8c-4.6-4.7-12-13.3-14.7-13.2c-12.4,0.4-24.8-0.2-37.6,0
		c-3.8,0.1-2.1,11.8-0.7,11.6C271.4,193.4,284.3,193.1,295.5,189z"/>
</g>
<path id="Lips" class="st7" d="M242,309.9c-14.2,0-38.9-7.2-47.4-14.9c10.8,9.9,29.4,24.7,45.5,26.3l3.1-0.1
	c16.1-1.7,33.1-17.3,43.9-27.2c-8.5,7.8-32.4,15.9-46.6,15.9 M241.6,305.6c8-6.1,43.6-5.4,47.4-13.7c-0.6,0.9-6,8.3-6.6,9.3
	c-10.1,14.5-18.4,36.2-40.6,35.5l0,0c-20.8,1.5-31.7-20-41.8-34.5c-3.9-6.5-3.1-2.3-7.9-10.2c3.6,8.3,41.9,7.9,49.9,14"/>
<g id="Dimples">
	<path class="st8" d="M188.6,296c-2.5-4.5,1.2-9.9,11-10.6"/>
	<path class="st8" d="M294.3,296.6c4.9-4.5-6.6-10.1-11.2-10.3"/>
</g>
<g id="Lashes_4_">
	<g id="Lashes_2_">
		<g id="Lashes">
			<g>
				<g>
					<path class="st9" d="M173.6,220.5c0-1.3,2.9-4,5.9-3.2"/>
					<path class="st9" d="M177.6,223c0.6-1.5,2.7-3.1,4.6-3.3"/>
					<path class="st9" d="M174.9,221.1c-0.1-2.9,5.1-3.3,5.2-3.3"/>
					<path class="st9" d="M182.2,219.7"/>
					<path class="st9" d="M174.9,221.8"/>
					<path class="st9" d="M176.2,221.9c0.2-1.6,2.7-3.2,5-2.9"/>
				</g>
				<g>
					<path class="st9" d="M179.1,224c-0.3-1.8,2.1-3.3,4.3-3.8"/>
					<path class="st9" d="M183.3,225.4c0.2-1.8,2.9-2.5,4.1-3.2"/>
					<path class="st9" d="M180.1,224.4c-0.3-1.8,2.6-3.1,4.4-3.6"/>
					<path class="st9" d="M188,221.8"/>
					<path class="st9" d="M181.2,224.9"/>
					<path class="st9" d="M182.3,225.3c-0.3-1.8,2-3.1,4-3.8"/>
				</g>
				<g>
					<path class="st9" d="M185.1,226.6c-0.3-1.8,0.8-2.8,4.4-3.9"/>
					<path class="st9" d="M190.4,227.9c-0.3-1.8,3.1-3.8,7.2-3.6"/>
					<path class="st9" d="M186.2,227c-0.3-2,3.7-3.7,5.1-3.7"/>
					<path class="st9" d="M194,224.4"/>
					<path class="st9" d="M187.3,227.4"/>
					<path class="st9" d="M188.3,227.8c-0.6-3.5,5.5-3.8,5.2-3.8"/>
				</g>
				<g>
					<path class="st9" d="M193.1,228.6c-1.2-1.6-0.8-2.8,2.9-4.1"/>
					<path class="st9" d="M198.5,227.9c-1.2-1.6-1.1-2.8,2.7-4.2"/>
					<path class="st9" d="M194.3,228.6c-1.2-1.6-0.1-2.9,3.7-4.2"/>
					<path class="st9" d="M200.1,223.4"/>
					<path class="st9" d="M195.4,228.6"/>
					<path class="st9" d="M196.6,228.6c-1.2-1.6-0.3-3.5,3.5-4.8"/>
				</g>
				<g>
					<path class="st9" d="M201.9,228.8c-2-0.7-3.5-2.1-1.3-5.1"/>
					<path class="st9" d="M205.7,226.7c-0.8-0.4-2.3-2.2-0.1-4.3"/>
					<path class="st9" d="M202.8,227.7c-0.6-0.3-3.3-0.6-0.1-4.2"/>
					<path class="st9" d="M204.3,221"/>
					<path class="st9" d="M203.8,227.6"/>
					<path class="st9" d="M204.8,227c-2-0.7-1.8-1.2-1.3-3.9"/>
				</g>
				<g>
					<path class="st9" d="M206.3,226.3c-1.3-1.5,0.6-4.2,4.3-5.7"/>
					<path class="st9" d="M211.6,225.1c-1.3-1.5-1.1-4.3,2.5-5.8"/>
					<path class="st9" d="M207.4,226c-1.3-1.5,0.4-4.4,4.1-5.9"/>
					<path class="st9" d="M212.9,220.5"/>
					<path class="st9" d="M208.6,225.9"/>
					<path class="st9" d="M209.8,225.9c-1.3-1.5-1.3-4.6,2.4-6.1"/>
				</g>
			</g>
			<g>
				<path class="st9" d="M171.7,210.8c0.3,3.2,4,2.8,7.5,4.8"/>
				<g>
					<g>
						<path class="st9" d="M170.9,211.4c0,2.7,5.2,4.2,8.3,4.2"/>
						<path class="st9" d="M174,208.8c0,0.4,0.1,3.9,6.8,5.5"/>
						<path class="st9" d="M179.2,215.7"/>
						<path class="st9" d="M171.7,210.8"/>
						<path class="st9" d="M172.4,210.3c0,2.7,7,4.6,7.4,4.6"/>
						<path class="st9" d="M178.7,214.6"/>
						<path class="st9" d="M173.2,209.7"/>
					</g>
					<g>
						<path class="st9" d="M199.9,209.3"/>
						<path class="st9" d="M199.3,203.6"/>
						<path class="st9" d="M204.1,210.3"/>
						<path class="st9" d="M203.1,203.5"/>
						<path class="st9" d="M200.2,203.5c-1.7,2.1-2.1,4.9,0.1,6.3"/>
						<path class="st9" d="M201.5,203.7c-1.7,2.1-2.4,4.9-0.1,6.3"/>
						<path class="st9" d="M202.9,204.3c-1.2,2.1-2.8,4.2-0.6,5.6"/>
					</g>
					<g>
						<path class="st9" d="M179.7,205.6c-0.7,2.8,1.2,5.3,4.8,5.9"/>
						<path class="st9" d="M184.3,204c-0.7,2.8,0.4,5.5,4.1,6.2"/>
						<path class="st9" d="M185.6,211"/>
						<path class="st9" d="M180.7,205.2"/>
						<path class="st9" d="M181.8,204.7c-0.7,2.8,1.4,5.2,5.1,5.9"/>
						<path class="st9" d="M182.8,204.3c-0.7,2.8,1.4,5.3,5.1,6"/>
					</g>
					<g>
						<path class="st9" d="M193.9,202.5c-1.8,2.3-1.2,5.3,1.2,6.8"/>
						<path class="st9" d="M198.1,202.8c-1.8,2.3-1.2,5.3,1.2,6.8"/>
						<path class="st9" d="M196.1,209.1"/>
						<path class="st9" d="M194.9,202.3"/>
						<path class="st9" d="M195.9,202.2c-1.8,2.3-2.2,5.4,0.2,6.9"/>
						<path class="st9" d="M197,202.7c-1.8,2.3-1.9,4.9,0.5,6.3"/>
					</g>
					<g>
						<path class="st9" d="M186.2,203.4c-1.4,2.8-0.9,5.1,2.3,6.3"/>
						<path class="st9" d="M191.8,202.2c-1.4,2.8-1.1,5.9,2,7.1"/>
						<path class="st9" d="M187.9,202.7c-1.4,2.8,0,6,3.1,7.2"/>
						<path class="st9" d="M189,202.4c-1.4,2.8,0,6,3.1,7.2"/>
						<path class="st9" d="M190.1,202.2c-1.4,2.8,0,6,3.1,7.2"/>
					</g>
					<g>
						<path class="st9" d="M180,213.8"/>
						<path class="st9" d="M175.1,208.4"/>
						<path class="st9" d="M183.6,212.2"/>
						<path class="st9" d="M179.1,207"/>
						<path class="st9" d="M176,207.9c-0.3,2.7,2.7,4.1,4.9,5.4"/>
						<path class="st9" d="M181.7,212.8"/>
						<path class="st9" d="M176.8,207.4"/>
						<path class="st9" d="M177.6,206.9c-0.3,2.7,1.9,5.1,4.9,5.4"/>
					</g>
					<g>
						<path class="st9" d="M204.4,205.2c-1.3,0.7-2.5,2-1.1,5"/>
						<path class="st9" d="M207.6,211.7"/>
						<path class="st9" d="M208.9,206.2"/>
						<path class="st9" d="M205.6,205.5c-0.9,0.7-3.1,2-1.4,5.1"/>
						<path class="st9" d="M206.6,206c1-0.7-3.1,1.8-1.6,4.8"/>
						<path class="st9" d="M208.1,206.6c-2.3,1.7-2.4,2.8-1.9,4.5"/>
					</g>
					<g>
						<path class="st9" d="M213.7,215.1"/>
						<path class="st9" d="M213.5,209.1"/>
						<path class="st9" d="M216.7,213.1c-1.8,1.2-1.8,3.8,0.1,5.9"/>
						<path class="st9" d="M214.4,210.5c-0.8,1.3-2.7,3.2-0.8,5.3"/>
						<path class="st9" d="M215.4,215.6"/>
						<path class="st9" d="M215.2,209.6"/>
						<path class="st9" d="M215.7,211.7c-1.8,1.2-2.4,3.5-0.5,5.6"/>
					</g>
					<g>
						<path class="st9" d="M209.2,207.6c-0.7,1-1.6,0.6-1.9,3.8"/>
						<path class="st9" d="M213.3,209.6c-1.8,1.2-3,3.4-1.1,5.5"/>
						<path class="st9" d="M210.6,208.1c-1.2,1.5-3,2.2-2,4.2"/>
						<path class="st9" d="M212.1,208.9c-1.8,1.2-3.4,2.9-1.5,5"/>
						<path class="st9" d="M212.2,214.1"/>
						<path class="st9" d="M212.1,208.1"/>
					</g>
					<path class="st9" d="M180.7,205.6c0.3,3.2,1.2,3.4,4.7,5.4"/>
				</g>
			</g>
		</g>
	</g>
	<g id="Lashes_1_">
		<g id="Lashes_3_">
			<g>
				<g>
					<path class="st9" d="M307.8,220.5c0-1.3-3.9-4-6.9-3.2"/>
					<path class="st9" d="M303.9,223c-0.6-1.5-3.7-3.1-5.6-3.3"/>
					<path class="st9" d="M306.6,221.1c0.1-2.9-6.1-3.3-6.2-3.3"/>
					<path class="st9" d="M298.3,219.7"/>
					<path class="st9" d="M306.5,221.8"/>
					<path class="st9" d="M305.3,221.9c-0.2-1.6-3.7-3.2-6-2.9"/>
				</g>
				<g>
					<path class="st9" d="M302.4,224c0.3-1.8-3.1-3.3-5.3-3.8"/>
					<path class="st9" d="M297.2,225.4c-0.2-1.8-2.9-2.5-4.1-3.2"/>
					<path class="st9" d="M300.3,224.4c0.3-1.8-2.6-3.1-4.4-3.6"/>
					<path class="st9" d="M292.5,221.8"/>
					<path class="st9" d="M299.3,224.9"/>
					<path class="st9" d="M298.2,225.3c0.3-1.8-2-3.1-4-3.8"/>
				</g>
				<g>
					<path class="st9" d="M295.4,226.6c0.3-1.8-0.8-2.8-4.4-3.9"/>
					<path class="st9" d="M290.1,227.9c0.3-1.8-3.1-3.8-7.2-3.6"/>
					<path class="st9" d="M294.3,227c0.3-2-3.7-3.7-5.1-3.7"/>
					<path class="st9" d="M286.4,224.4"/>
					<path class="st9" d="M293.2,227.4"/>
					<path class="st9" d="M292.1,227.8c0.6-3.5-5.5-3.8-5.2-3.8"/>
				</g>
				<g>
					<path class="st9" d="M287.4,228.6c1.2-1.6,0.8-2.8-2.9-4.1"/>
					<path class="st9" d="M282,227.9c1.2-1.6,1.1-2.8-2.7-4.2"/>
					<path class="st9" d="M286.2,228.6c1.2-1.6,0.1-2.9-3.7-4.2"/>
					<path class="st9" d="M280.3,223.4"/>
					<path class="st9" d="M285,228.6"/>
					<path class="st9" d="M283.8,228.6c1.2-1.6,0.3-3.5-3.5-4.8"/>
				</g>
				<g>
					<path class="st9" d="M278.6,228.8c2-0.7,3.5-2.1,1.3-5.1"/>
					<path class="st9" d="M274.8,226.7c0.8-0.4,2.3-2.2,0.1-4.3"/>
					<path class="st9" d="M277.6,227.7c0.6-0.3,3.3-0.6,0.1-4.2"/>
					<path class="st9" d="M276.2,221"/>
					<path class="st9" d="M276.7,227.6"/>
					<path class="st9" d="M275.7,227c2-0.7,1.8-1.2,1.3-3.9"/>
				</g>
				<g>
					<path class="st9" d="M274.2,226.3c1.3-1.5-0.6-4.2-4.3-5.7"/>
					<path class="st9" d="M268.9,225.1c1.3-1.5,1.1-4.3-2.5-5.8"/>
					<path class="st9" d="M273.1,226c1.3-1.5-0.4-4.4-4.1-5.9"/>
					<path class="st9" d="M267.5,220.5"/>
					<path class="st9" d="M271.9,225.9"/>
					<path class="st9" d="M270.7,225.9c1.3-1.5,1.3-4.6-2.4-6.1"/>
				</g>
			</g>
			<g>
				<path class="st9" d="M308.8,210.8c-0.3,3.2-4,2.8-7.5,4.8"/>
				<g>
					<g>
						<path class="st9" d="M309.6,211.4c0,2.7-5.2,4.2-8.3,4.2"/>
						<path class="st9" d="M306.5,208.8c0,0.4-0.1,3.9-6.8,5.5"/>
						<path class="st9" d="M301.2,215.7"/>
						<path class="st9" d="M308.8,210.8"/>
						<path class="st9" d="M308,210.3c0,2.7-7,4.6-7.4,4.6"/>
						<path class="st9" d="M301.7,214.6"/>
						<path class="st9" d="M307.3,209.7"/>
					</g>
					<g>
						<path class="st9" d="M280.6,209.3"/>
						<path class="st9" d="M281.2,203.6"/>
						<path class="st9" d="M276.4,210.3"/>
						<path class="st9" d="M277.4,203.5"/>
						<path class="st9" d="M280.3,203.5c1.7,2.1,2.1,4.9-0.1,6.3"/>
						<path class="st9" d="M278.9,203.7c1.7,2.1,2.4,4.9,0.1,6.3"/>
						<path class="st9" d="M277.6,204.3c1.2,2.1,2.8,4.2,0.6,5.6"/>
					</g>
					<g>
						<path class="st9" d="M300.8,205.6c0.7,2.8-1.2,5.3-4.8,5.9"/>
						<path class="st9" d="M296.2,204c0.7,2.8-0.4,5.5-4.1,6.2"/>
						<path class="st9" d="M294.8,211"/>
						<path class="st9" d="M299.7,205.2"/>
						<path class="st9" d="M298.7,204.7c0.7,2.8-1.4,5.2-5.1,5.9"/>
						<path class="st9" d="M297.6,204.3c0.7,2.8-1.4,5.3-5.1,6"/>
					</g>
					<g>
						<path class="st9" d="M286.6,202.5c1.8,2.3,1.2,5.3-1.2,6.8"/>
						<path class="st9" d="M282.4,202.8c1.8,2.3,1.2,5.3-1.2,6.8"/>
						<path class="st9" d="M284.4,209.1"/>
						<path class="st9" d="M285.6,202.3"/>
						<path class="st9" d="M284.6,202.2c1.8,2.3,2.2,5.4-0.2,6.9"/>
						<path class="st9" d="M283.4,202.7c1.8,2.3,1.9,4.9-0.5,6.3"/>
					</g>
					<g>
						<path class="st9" d="M294.3,203.4c1.4,2.8,0.9,5.1-2.3,6.3"/>
						<path class="st9" d="M288.7,202.2c1.4,2.8,1.1,5.9-2,7.1"/>
						<path class="st9" d="M292.5,202.7c1.4,2.8,0,6-3.1,7.2"/>
						<path class="st9" d="M291.5,202.4c1.4,2.8,0,6-3.1,7.2"/>
						<path class="st9" d="M290.4,202.2c1.4,2.8,0,6-3.1,7.2"/>
					</g>
					<g>
						<path class="st9" d="M300.4,213.8"/>
						<path class="st9" d="M305.3,208.4"/>
						<path class="st9" d="M296.9,212.2"/>
						<path class="st9" d="M301.3,207"/>
						<path class="st9" d="M304.5,207.9c0.3,2.7-2.7,4.1-4.9,5.4"/>
						<path class="st9" d="M298.8,212.8"/>
						<path class="st9" d="M303.7,207.4"/>
						<path class="st9" d="M302.9,206.9c0.3,2.7-1.9,5.1-4.9,5.4"/>
					</g>
					<g>
						<path class="st9" d="M276,205.2c1.3,0.7,2.5,2,1.1,5"/>
						<path class="st9" d="M272.9,211.7"/>
						<path class="st9" d="M271.5,206.2"/>
						<path class="st9" d="M274.8,205.5c0.9,0.7,3,1.8,1.2,4.9"/>
						<path class="st9" d="M273.8,206c-1-0.7,3.1,1.8,1.6,4.8"/>
						<path class="st9" d="M272.4,206.6c2.3,1.7,2.4,2.8,1.9,4.5"/>
					</g>
					<g>
						<path class="st9" d="M266.8,215.1"/>
						<path class="st9" d="M266.9,209.1"/>
						<path class="st9" d="M263.8,213.1c1.8,1.2,1.8,3.8-0.1,5.9"/>
						<path class="st9" d="M266.1,210.5c0.8,1.3,2.7,3.2,0.8,5.3"/>
						<path class="st9" d="M265.1,215.6"/>
						<path class="st9" d="M265.2,209.6"/>
						<path class="st9" d="M264.7,211.7c1.8,1.2,2.4,3.5,0.5,5.6"/>
					</g>
					<g>
						<path class="st9" d="M271.2,207.6c0.7,1,1.6,0.6,1.9,3.8"/>
						<path class="st9" d="M267.2,209.6c1.8,1.2,3,3.4,1.1,5.5"/>
						<path class="st9" d="M269.8,208.1c1.2,1.5,3,2.2,2,4.2"/>
						<path class="st9" d="M268.4,208.9c1.8,1.2,3.4,2.9,1.5,5"/>
						<path class="st9" d="M268.3,214.1"/>
						<path class="st9" d="M268.4,208.1"/>
					</g>
					<path class="st9" d="M299.8,205.6c-0.3,3.2-1.2,3.4-4.7,5.4"/>
				</g>
			</g>
		</g>
	</g>
</g>
<g id="Liner_4_">
	<g id="Liner_2_">
		<g id="Liner">
			<path class="st10" d="M179.2,215.6c-1.2,2,8.7-12.9,26.9-4.6"/>
		</g>
	</g>
	<g id="Liner_1_">
		<g id="Liner_3_">
			<path class="st10" d="M301.3,215.6c1.2,2-12.1-14.6-30.3-2.8"/>
		</g>
	</g>
</g>
<g id="Lids">
	<g id="Eyelids">
		<g>
			<path class="st11" d="M175.8,210.5c17.1-14,30.9-5.1,40.9,2.7"/>
			<path class="st11" d="M210.4,226.6"/>
			<path class="st11" d="M178.9,224.4"/>
		</g>
	</g>
	<path class="st11" d="M304.7,210.5c-17.1-14-33.2-5-41,4.8"/>
	<path class="st11" d="M302.5,224.4c-0.2,0.6-10.7,11.2-32.9-0.6"/>
	<path class="st11" d="M179.5,224.4c0.2,0.6,10.7,11.2,32.9-0.6"/>
</g>
<g id="Freckles">
	<ellipse class="st12" cx="263.7" cy="174.7" rx="0.7" ry="0.8"/>
	<ellipse class="st13" cx="281.2" cy="310.6" rx="0.6" ry="0.6"/>
	
		<ellipse transform="matrix(0.5475 -0.8368 0.8368 0.5475 -125.9186 320.5836)" class="st14" cx="233.4" cy="276.7" rx="0.6" ry="1.1"/>
	<ellipse class="st15" cx="257.8" cy="352.9" rx="0.8" ry="0.8"/>
</g>
<g id="Hair">
	<path class="st16" d="M330.9,28.3c0.4-0.1,0.9-0.2,1.3-0.2C331.8,28.1,331.3,28.1,330.9,28.3c-1.1,0.3-2.1,0.4-2.9,0.4
		c-0.2,0-0.3,0-0.5,0C328.5,28.8,329.6,28.7,330.9,28.3z"/>
	<path class="st16" d="M319,19.5c-0.3,0-0.6-0.1-0.8-0.1c-1.3,0-2.9,0.5-3.7,1.8C315.5,19.9,317.3,19.3,319,19.5z"/>
	<path class="st16" d="M304.8,16.9c-0.1,0-0.2,0-0.3,0c-0.5,0-1,0.1-1.5,0.2h0.1C303.7,17,304.3,16.9,304.8,16.9z"/>
	<path class="st16" d="M362.7,43.2c0.1,0,0.1,0,0.2,0C362.8,43.2,362.8,43.2,362.7,43.2z"/>
	<path class="st16" d="M355.3,43.7c-0.2,0-0.3,0-0.5-0.1C355,43.6,355.2,43.6,355.3,43.7z"/>
	<path class="st16" d="M361,43.4c0.6-0.2,1.1-0.2,1.6-0.2C362,43.1,361.5,43.2,361,43.4c-1.2,0.3-2.3,0.4-3.5,0.4
		c-0.5,0-1,0-1.6-0.1C357.6,43.9,359.3,43.9,361,43.4z"/>
	<path class="st16" d="M292.7,8.4c0.5-0.1,1-0.1,1.4,0c-0.3,0-0.6-0.1-0.8-0.1C293.1,8.3,292.9,8.3,292.7,8.4L292.7,8.4z"/>
	<path class="st16" d="M222.6,14.7c0.1,0,0.2,0,0.2,0C222.8,14.8,222.7,14.7,222.6,14.7z"/>
	<path class="st16" d="M209.9,20.5c1.8-2,3.9-3.7,6.1-4.7c2.2-0.9,4.4-1.3,6.5-1.1c-0.4,0-0.8-0.1-1.2-0.1c-1.7,0-3.5,0.4-5.3,1.1
		c-2.1,0.9-4.1,2.5-5.9,4.5L209.9,20.5h-0.3c-0.4,0-0.8-0.1-1.2-0.1C209,20.4,209.5,20.5,209.9,20.5z"/>
	<path class="st16" d="M256.1,0.9c-0.4-0.1-0.7-0.1-1.1-0.1c-1.9,0-3.6,0.8-4.6,2.3C251.8,1.3,254,0.6,256.1,0.9z"/>
	<path class="st16" d="M366.1,45.1c0.8-0.5,1.6-0.7,2.4-0.7c-0.1,0-0.2,0-0.3,0c-0.7,0-1.4,0.2-2.1,0.6V45.1L366.1,45.1z"/>
	<path class="st16" d="M281.3,8.3C281.4,8.3,281.4,8.3,281.3,8.3c-2.8,1.1-5.9,2.2-9,2.2c-0.5,0-1,0-1.5-0.1
		C274.4,10.9,278.1,9.7,281.3,8.3z"/>
	<path class="st16" d="M290.3,5c-0.1,0-0.3,0-0.4,0c-1.4,0-3.4,0.9-5.8,2c-0.5,0.2-1.1,0.5-1.6,0.7c0,0,0,0,0,0.1
		C285.8,6.3,288.5,4.9,290.3,5z"/>
	<path class="st16" d="M249.8,3.9C249.8,3.9,249.9,3.9,249.8,3.9h-0.1c-6,1.5-11.8,5.5-15.6,10.6C238,9.3,243.8,5.4,249.8,3.9z"/>
	<path class="st16" d="M304.1,478h-0.2c-0.1,0-0.2,0-0.3,0.1l-0.1,0.1l0,0C303.7,478.2,303.9,478.1,304.1,478L304.1,478z"/>
	<path class="st16" d="M454.5,223.7L454.5,223.7c-0.3,0.1-0.6,0.2-0.9,0.3h-0.1c0,0,0,0,0.1,0C453.9,224,454.2,223.8,454.5,223.7z"
		/>
	<path class="st16" d="M411.1,390.8h-0.2c-0.1,0-0.2,0-0.2,0l0,0C410.8,390.9,411,390.8,411.1,390.8L411.1,390.8z"/>
	<path class="st16" d="M455.7,328.3c0,0.1-0.1,0.2-0.1,0.3C455.7,328.6,455.7,328.5,455.7,328.3L455.7,328.3z"/>
	<path class="st16" d="M320.9,252.9c0,0.1-0.1,0.1-0.1,0.2C320.8,253,320.9,253,320.9,252.9z"/>
	<path class="st16" d="M379.5,49.9c-0.1,0-0.2,0-0.3,0c-1.3,0-2.7,0.8-3.6,2C376.5,50.6,378,49.8,379.5,49.9z"/>
	<path class="st16" d="M291,330.3C291.1,330.3,291.1,330.3,291,330.3c-0.2,0.2-0.4,0.4-0.6,0.6C290.6,330.7,290.8,330.5,291,330.3z"
		/>
	<path class="st16" d="M258.7,514.4L258.7,514.4c0,0-0.1,0.1-0.2,0.3C258.6,514.6,258.6,514.5,258.7,514.4z"/>
	<path class="st16" d="M384.2,53.3c0.2,0,0.4,0,0.6-0.1c0.3,0,0.5,0,0.8,0c-0.3,0-0.6,0-0.9,0L384.2,53.3L384.2,53.3z"/>
	<path class="st16" d="M180.1,54.7c0.3-0.2,0.7-0.4,1-0.7c0,0,0,0,0-0.1c-0.3,0.2-0.6,0.4-0.8,0.6C180.2,54.6,180.2,54.7,180.1,54.7
		z"/>
	<path class="st16" d="M185.9,495.6L185.9,495.6c-0.6,0.4-1,0.9-1.5,1.5C184.9,496.5,185.4,496,185.9,495.6z"/>
	<path class="st16" d="M184.4,497.2c-0.1,0.1-0.1,0.2-0.2,0.3C184.3,497.3,184.4,497.2,184.4,497.2z"/>
	<path class="st16" d="M313.1,24.8c-0.2,0.2-0.3,0.3-0.5,0.4l0,0C312.8,25.2,312.9,25,313.1,24.8z"/>
	<path class="st16" d="M286.7,438c-0.2,0-0.4,0-0.6,0c-1.3,0-2.8,0.6-3.8,1.9C283.4,438.5,285.1,437.9,286.7,438z"/>
	<path class="st16" d="M321.8,278.6C321.8,278.6,321.8,278.5,321.8,278.6c-0.3,0.2-0.5,0.4-0.8,0.7
		C321.3,279,321.5,278.8,321.8,278.6z"/>
	<path class="st16" d="M288.9,335.1c-0.3-0.1-0.6,0-0.7,0.1c-0.1,0.1-0.1,0.1-0.1,0.2C288.2,335.2,288.5,335.1,288.9,335.1z"/>
	<path class="st16" d="M295.3,324.8L295.3,324.8c-0.8,0.5-1.6,1.2-2.3,2C293.7,326.1,294.4,325.4,295.3,324.8z"/>
	<path class="st16" d="M331,203.7C331,203.6,331,203.6,331,203.7h-0.1c-0.7,0.2-1.7,0.6-2.4,1.6C329.1,204.4,330,203.9,331,203.7z"
		/>
	<path class="st16" d="M323.7,248.9c0.7-0.8,1.6-1.3,2.5-1.5c0,0,0,0,0-0.1c-0.9,0.1-1.7,0.5-2.4,1.3c-0.3,0.3-0.6,0.7-0.8,1.1
		C323.3,249.4,323.5,249.1,323.7,248.9z"/>
	<path class="st16" d="M258.5,478.6c1.9-1,4-2,6-3.1c0,0,0,0,0-0.1c-1.6,0.9-3.3,1.7-4.9,2.5L258.5,478.6c-0.7,0.3-1.2,0.7-1.5,1.2
		C257.3,479.4,257.8,478.9,258.5,478.6z"/>
	<path class="st16" d="M259.7,498.6c0.4-0.2,0.7-0.4,1-0.7v-0.1C260.5,498.1,260.1,498.3,259.7,498.6c-0.6,0.2-1.1,0.7-1.4,1.2
		C258.7,499.4,259.1,499,259.7,498.6z"/>
	<path class="st16" d="M183.9,28.3c5.7-6,15.2-8.5,24.2-7.9c-0.9-0.1-1.9-0.1-2.8-0.1c-8.8,0-16.5,2.9-21.2,7.9L183.9,28.3
		L183.9,28.3z"/>
	<path class="st16" d="M233,397.3c-1-0.1-2.8-0.2-4.8-0.3l0,0C230.1,397.1,231.9,397.2,233,397.3z"/>
	<path class="st16" d="M267.2,468.1c2.3-0.8,4.3-2,6-3.5c0,0,0-0.1,0.1-0.1C271.4,466,269.4,467.3,267.2,468.1
		c-1.4,0.4-2.1,1.1-2.6,1.7C265.2,469.1,266,468.5,267.2,468.1z"/>
	<path class="st16" d="M280.7,445.5L280.7,445.5h-0.1c-0.7,0.2-1.6,0.6-2.2,1.5C279,446.2,279.8,445.8,280.7,445.5z"/>
	<path class="st16" d="M293,326.9c-0.1,0.1-0.2,0.3-0.3,0.4C292.8,327.2,292.9,327,293,326.9z"/>
	<path class="st16" d="M116.2,48.7c-0.3,0-0.7-0.1-1-0.1c-4.4,0-8.7,3-12.1,7.1C106.8,51.3,111.5,48.3,116.2,48.7z"/>
	<path class="st16" d="M118.8,49.2c2.8-3.3,7.3-4.8,12-4.3c-0.6-0.1-1.2-0.1-1.8-0.1c-4.1,0-7.8,1.5-10.1,4.2L118.8,49.2
		C118.7,49.2,118.8,49.2,118.8,49.2z"/>
	<path class="st16" d="M96.7,66.9c0.1-0.1,0.2-0.1,0.3-0.2l0,0c-2.6,0.9-5,2.7-6.8,5.1C91.9,69.6,94.1,67.9,96.7,66.9z"/>
	<path class="st16" d="M71.3,79.4c3.5-2.4,7.9-4.2,12.1-3.8c-0.5,0-0.9-0.1-1.4-0.1c-3.4,0-7.2,1.3-10.7,3.7c-2.8,1.9-5.7,4.7-8.1,8
		C65.6,84.1,68.5,81.3,71.3,79.4z"/>
	<path class="st16" d="M153.8,37.3c5.5-6.9,16-10.9,25.6-9.8c-1.1-0.1-2.2-0.2-3.4-0.2c-8.6,0-17.3,3.8-22,9.8L153.8,37.3
		C153.7,37.3,153.8,37.3,153.8,37.3z"/>
	<path class="st16" d="M152.4,469.4c0.4-0.5,0.8-0.9,1.2-1.4l0,0c-0.3,0.4-0.7,0.8-1,1.2c-0.2,0.2-0.3,0.4-0.5,0.6
		C152.2,469.7,152.3,469.5,152.4,469.4z"/>
	<path class="st16" d="M152.2,36.4c-0.1,0-0.2,0-0.3,0c-1.6,0-4.3,2.2-6.9,4.2c-3.2,2.6-6.5,5.3-9.3,5.3c-0.1,0-0.2,0-0.4,0
		C140.2,46.7,148.2,36.3,152.2,36.4z"/>
	<path class="st16" d="M30.1,347.3C30.1,347.2,30.1,347.2,30.1,347.3c-2,1.5-3.6,3.2-4.9,4.9C26.5,350.3,28.2,348.7,30.1,347.3z"/>
	<path class="st16" d="M52.6,120.8L52.6,120.8L52.6,120.8c-6,1.9-11.2,6.2-15.4,11.2C41.5,126.9,46.7,122.7,52.6,120.8z"/>
	<path class="st16" d="M12.1,159.2c0.7-0.5,1.6-0.7,2.6-0.7c-1-0.1-1.9,0.1-2.5,0.6c-1.5,1.1-3.3,2.7-4.7,4.6
		C8.6,162,10.2,160.5,12.1,159.2z"/>
	<path class="st16" d="M24.9,352.4c-0.1,0.1-0.2,0.2-0.2,0.4C24.7,352.7,24.8,352.6,24.9,352.4z"/>
	<path class="st16" d="M8.6,224.6L8.6,224.6c-0.3,0.3-0.6,0.6-0.8,1C8,225.3,8.3,225,8.6,224.6z"/>
	<path class="st16" d="M18.6,154.6c2.4-2.7,5.4-4.3,8.2-4.4l0,0h-0.2c-2.7,0.1-5.6,1.7-7.8,4.2c-0.6,0.6-1.1,1.3-1.6,2
		C17.6,155.9,18.1,155.2,18.6,154.6z"/>
	<path class="st17" d="M471,298.9l0.1-0.6c0.5-0.3,0.9-0.6,1.3-1c0.6-0.7,1.2-1.3,1.7-2l0,0c0.4-0.5,0.7-0.9,1-1.4
		c6.3-8.7,6.5-17.7,0.4-25.6c-2.4-3.2-5.5-5.8-8.4-8.4c-0.5-0.5-1-0.9-1.5-1.4c-0.2-0.2-0.5-0.4-0.8-0.7l0,0
		c0.1-1.8,0.2-3.5,0.3-5.2c0.3-6.9,0.1-13.6-0.7-19.9c0.8-2.4,1.2-4.4,1.3-6.3c0.4-5.8-2.2-10-7.7-12.6c1.3-1.7,1.7-3.9,1.8-6.5
		c0-0.1,0-0.1,0-0.2v-0.2c0-2-0.9-3.6-2.5-4.5c0.4-2-0.4-4.2-1.2-6.2c-0.1-0.3-0.3-0.7-0.4-1c1.7-5.7,2.4-10.5,2.2-14.7
		c0.2-0.2,0.3-0.3,0.4-0.5c1.4-1.7,1.7-4.1,0.6-6.3c-2-4.5-5.5-7.7-8.3-10.1c-0.4-2.6-1.7-5-3.8-7c-0.1-8-6.6-14.7-16-16.2
		c-0.5-1.7-0.9-3.4-1.3-4.9c-0.5-2.1-2.2-3.2-4-4.1c0.3-0.5,0.7-1.1,1-1.7c0.9-1.8,1.1-3.6,0.3-5.1c-0.9-1.9-2.9-3.4-5.4-4
		c0-0.9,0-1.6-0.1-2.4c-0.9-7.1-5.8-11-11.2-14.7c-4.4-3-4.7-8.5-4.9-13.8c-0.1-1.8-0.2-3.6-0.4-5.2c-0.7-4.7-4.4-8.6-7.6-12
		c-0.9-0.9-1.7-1.8-2.5-2.7c-0.4-2-1.5-3.5-3-4.1c-1-1.6-1.9-3.3-2.7-4.8c0.9-2,0.8-4.4-0.3-6.1c-0.8-1.3-2.1-2.1-3.7-2.1
		c-0.2,0-0.5,0-0.8,0.1H384c-0.5-0.6-0.9-1.2-1.4-1.7c-1-1.1-2.3-1.7-3.7-1.7c-1.6,0-3.3,0.9-4.4,2.3c-0.6-0.6-0.9-1.3-1-2.2
		c-0.2-3-2.8-5.6-5.6-5.6c-0.8,0-1.5,0.2-2.2,0.6c-1.3-1.6-3.3-2.1-5.4-1.5c-1,0.3-2.1,0.4-3.2,0.4c-4.2,0-8.5-2-11.8-3.8
		c-2.2-1.2-4.2-2.6-6-4.1c-0.7-0.6-1.4-1.3-1.9-2c-0.1-0.1-0.1-0.1-0.2-0.2c0.1-1.2-0.3-2.4-1.1-3.4c-1.4-1.6-3.9-2.4-5.8-1.9
		c-4.1,1.2-6,0-7-4.9c-0.6-2.8-3.1-4-5.4-4c-2.2,0-4.7,1.2-5.2,4c-0.2,1.2-0.6,2-1.1,2.1c-0.5-0.5-1-1-1.5-1.5
		c-0.2-0.5-0.3-1-0.3-1.6c-0.2-3.1-2.5-5.4-5.5-5.4c-0.9,0-1.8,0.2-2.6,0.6c-0.5-0.3-1-0.5-1.5-0.7c-0.7-1.2-1.1-2.5-1.5-3.8
		l-0.3-0.9c-0.8-2.4-2.8-3.8-5.3-3.8c-0.1,0-0.2,0-0.4,0c-0.3-2.3-1.2-3.4-3-3.4c-1.6,0-3.7,1-6.2,2.1c-0.6,0.3-1.1,0.5-1.7,0.8
		l-0.6,0.3c-2.8,1.2-5.9,2.3-9,2.3c-4.2,0-7.6-2-10.5-6.2c-1.5-2.2-4.1-3.5-6.8-3.5c-2.5,0-4.5,1.1-5.8,3.2
		c-7.2,1.8-14,7.1-17.8,13.6c-0.6,0.2-1.3,0.4-1.9,0.6c-2-2.3-4.9-3.5-8.3-3.5c-1.9,0-3.8,0.4-5.7,1.2c-2.1,0.9-4.3,2.5-6.1,4.6
		c-1.4-0.2-2.8-0.2-4.2-0.2c-8.9,0-16.8,2.9-21.7,8c-2.4-0.7-4.9-1-7.6-1c-8.7,0-17.4,3.8-22.5,9.7c-0.4-0.4-1-0.6-1.6-0.6
		c-2,0-4.7,2.2-7.5,4.5c-2.9,2.4-6.3,5.1-8.7,5.1c-0.3,0-0.6,0-0.9-0.1c-1.9-0.6-3.9-1-5.9-1c-4.3,0-8.1,1.6-10.6,4.3
		c-1-0.3-2.1-0.5-3.2-0.5c-8,0-15.8,9.2-18.8,18.2c-4,1.4-7.3,4.7-9.4,9.3c-0.1,0.1-0.1,0.1-0.2,0.2c-0.1,0-0.2-0.1-0.3-0.1
		c-1.4-0.5-2.9-0.8-4.4-0.8c-3.6,0-7.6,1.4-11.3,3.9c-6.5,4.5-13.6,13.4-13.7,22.3c-3,4.3-4.9,9.3-5.5,14.1c-0.2,1.7-0.2,3.4,0.1,5
		c-12.5,4.4-21.5,18.4-25.6,29.3c-2.9,0.2-5.8,1.9-8.2,4.5c-1,1.1-1.9,2.3-2.9,3.6c-1.3-0.2-2.7,0-3.6,0.7c-7.2,5.3-9.4,12-5.8,18.3
		c0.8,1.4,1.9,2.7,3.1,3.6c0.7,0.8,1.7,1.4,2.7,1.7c0.2,0.1,0.4,0.2,0.6,0.3c-0.4,1.1-0.6,2.3-0.7,3.6c-2.9,6.9-4.4,14.6-5.1,20.2
		c-0.6,4.8-0.8,11.8,1.4,17.9c-4.8,5.6-6.9,14.6-7.2,21.2c-0.4,7.4,1.4,14.2,5,19.6c0.5,0.8,1.1,1.5,1.9,2.3
		c1.1,2.9,2.4,5.7,3.7,8.5c0.6,1.4,1.3,2.8,1.9,4.1c-3.6,5.2-4.3,11.5-1.9,17.8c0.7,1.8,1.6,3.4,2.6,4.8c-1.2,2.2-2.3,4.8-3.3,7.7
		c-3.2,9.7-3.4,19.7-0.4,26.9c2.3,5.5,7.5,9.6,13,10.4h0.1c0.3,0,0.6,0.1,0.9,0.1c1.5,0.1,3,0,4.5-0.4c-4.2,3.6-6.7,7.6-7.4,11.8
		c-1,6.1,1.6,12.3,7.1,16.7c2.2,1.7,6.4,4.6,11.2,5.1c1.5,0.2,3,0.2,4.4-0.1l0,0c1.1,4.7,4.7,8.9,9.5,10.9c1.4,0.6,2.9,1,4.4,1.2
		c1.3,0.2,2.5,0.2,3.6,0c1.2,2,3.2,3.5,5.9,4.4c0.9,0.3,1.9,0.5,2.9,0.6c0.2,0,0.4,0,0.6,0.1c0.5,0.3,1.1,0.5,1.6,0.8
		c-0.4,2-0.4,4.1-0.2,6.2c0.1,0.7,0.3,1.3,0.5,2c-1.3,3.2-1.7,6.8-1.3,10.3c0.4,2.9,2.2,5,4.8,5.3c1.1,0.2,2.3,0.1,3.5-0.5
		c3.6-1.7,7.1-2.4,10.6-2.5c-0.4,1.3-0.2,2.7,0.6,4c1,1.6,2.6,2.7,4.3,2.9c0.2,0,0.5,0.1,0.7,0.1c1.2,0,2.5,0,3.7-0.1
		c0.5,2.1,1.5,3.8,2.8,5.2c1.8,1.9,4.5,2.6,6.6,2.9c-0.1,0.8-0.1,1.8-0.1,2.8c0,2.4,1.6,4.6,4,5.3c2.1,0.6,4,1.6,6.2,2.8
		c-0.2,1.1-0.1,2.3,0.2,3.5c0.1,0.5,0.3,1,0.5,1.5c-0.3,5.7,2.7,10.1,8.3,12.1c0.9,0.3,1.9,0.5,2.8,0.7c0.3,0,0.5,0.1,0.8,0.1h0.1
		c2.2,0.2,4.3-0.2,6.3-1.1c0.4,0.3,0.8,0.6,1.2,0.8c1.3,0.8,2.7,1.3,4.2,1.5c0.2,0,0.4,0.1,0.5,0.1s0.2,0,0.4,0
		c1.9,0.2,3.7-0.1,5.6-0.7c0.4,1,1,1.9,1.7,2.7c0.3,0.3,0.5,0.6,0.8,0.8c-0.3,0.4-0.6,0.7-0.8,1c-1.5,1.7-1.9,4.1-1,6.2
		c0.8,1.8,2.4,2.9,4.3,3.1c0.3,0,0.6,0.1,0.9,0.1c1.9,0,3.4-0.2,4.8-0.5c1.1,0.9,2.5,1.5,3.9,1.6c0.5,0.1,1,0.1,1.5,0
		c0.6-0.1,1.2-0.2,1.8-0.2c-0.4,2,0.3,3.9,1.9,5.3c-1.2,3-1.9,6.2-2,9.6c0,1.4,0.5,2.8,1.5,3.8c1,1,2.2,1.6,3.5,1.7
		c0.2,0,0.5,0,0.7,0c3.1-0.1,7.1-0.8,10.1-2.5c-0.7,1-1.4,2.1-1.9,3.1c-0.2,0.4-0.4,0.8-0.7,1.2c-1,1.7-1,3.6-0.1,5.4
		c0.9,1.5,2.4,2.5,4,2.8c0.1,0,0.2,0,0.3,0c0.1,0,0.1,0,0.2,0c0.6,0.1,1.2,0.1,1.9-0.1h0.1c1,1.5,2.8,2.5,4.6,2.6
		c1.1,0.2,2.2,0,3.1-0.7c-1,4.3-0.9,8.7,0.3,14.2c0.6,2.5,2.6,3.7,4.6,3.9c1.9,0.3,3.9-0.4,5-2c0.4-0.5,0.7-1.2,0.9-1.9
		c0.1-0.6,0.3-1.2,0.5-1.7c1.7,1.2,3.4,2.5,5.1,3.7c0.7,0.5,1.4,0.8,2.2,0.9c1.9,0.3,3.8-0.9,5-2.5c0.4-0.5,0.7-1.1,0.9-1.6
		c1.9-4.7,2.6-9.6,2.7-14.4c6.2-6.5,5.9-13.9,5.6-21.8c-0.1-2.6-0.2-5.3-0.1-8.1c0.4,0.2,0.8,0.4,1.2,0.5c0.3,0.1,0.7,0.2,1.1,0.2
		c1.7,0.3,3.7-0.6,4.7-1.9c0.2-0.3,0.4-0.5,0.6-0.8c2-4.2,3.6-10.3,3-15.6c2.3-1,5-2.5,7.8-5.5c3.7-3.8,5-8.6,4.9-13.7
		c0.8-2.4,1.2-5,0.5-7.5c-0.8-2.8-2.4-5-4.1-6.6c-0.4-0.9-0.7-1.7-1.1-2.6c-0.1-1.3-0.4-2.4-0.9-3.5c0.2-2.7-1.6-5.2-4.7-6.8
		c-0.4-0.6-0.8-1.3-1.2-1.9c-0.3-5.7-1.4-11.9-5.5-17.1l0,0c-0.3-0.4-4-0.7-6.8-0.8c-0.7-1.1-1.4-2.1-2.1-3.2
		c1.5-0.7,2.5-2.1,2.3-4.3c-0.3-3.6-1.5-6.6-2.6-10.1c-0.6-2.1-2.8-3.6-4.9-3.7c-2-3.9-4.9-7.5-7.9-10.3c-1-3.9-3.2-8-4.5-10.6
		c-2.2-4.1-4.9-7.9-7.2-11.9v-0.1c-0.9-2.2-2.3-4.2-3.2-6.4c-1-2.5-3.4-3.5-5.5-3.3c-0.5-1-0.7-2.1-0.3-3.2
		c1.7-5.5-0.1-9.7-5.2-12.4c-1-0.5-2-0.7-2.8-0.6c-1.5-2.2-3.2-4.3-5.1-5.9c1.2,0.1,1.8,0.1,1.5,0l0,0c0.2-0.1,0.3-0.2,0.3-0.4v-0.5
		h-0.1c-0.1-5.6-1.6-10.2-4.4-13.6c-2.4-2.9-5.7-4.7-9.7-5.3c0.8-11.2-4.4-21.3-13.4-26.6c0-4.4-0.7-8.7-1.3-13
		c-0.7-4.6-1.5-9.4-1.3-14.1c0.1-2.6,1.4-6.5,2.6-10.2c0.6-1.9,1.2-3.7,1.6-5.2c1.6-5.8,2.9-11.4,1.5-16.8c-0.4-1.5-1-2.8-2-3.8
		c0.6-1.3,1.2-2.8,1.7-4.3l0.5-1.4c0.4-1.1,0.3-2.7-0.4-4c3.7-1.9,7.5-4,10.2-7c0.2-0.2,0.4-0.5,0.6-0.7c1.1-1.4,1.8-3,1.9-4.6
		c2.9-1,5.5-2.7,7.7-5.1c1.8-0.5,3.5-1.4,5.1-2.5c1.1,0.4,2.3,0.7,3.6,0.9c0.2,0,0.3,0,0.5,0.1c0.3,0,0.6,0.1,1,0.1
		c8.4,0.7,18.1-3.9,25-8.5c0.3,0,0.5-0.1,0.8-0.1c0.4,0,0.8,0,1.1,0c0.1,0,0.2,0,0.3,0c0.1,0,0.2,0,0.3,0c0.4,0.1,0.8,0.1,0.8,0
		c0.9,0.8,2,1.2,3.1,1.4c1.9,0.4,3.8-0.3,4.9-2c0.4-0.5,0.7-1.1,0.9-1.8c0.9-2.9,2.7-6,5.3-9.2c1.1-0.6,2.2-1.2,3.4-1.8
		c0.9,0.7,2,1.1,3.2,1.2c1.1,0.1,2.1,0,3-0.6c0.3,0.1,0.6,0.1,1,0.2c0.4,0,0.8,0.1,1.2,0.1c1.4,0,3.2-0.7,4-2
		c0.2-0.3,0.4-0.5,0.5-0.8l0.4-0.8c0.7-1.5,0.8-3.1,0.3-4.6c2.5-2.5,6.1-3.9,9.5-4.8c0.1,0,0.1,0,0.2,0c1.5,0.2,3-0.1,4-1.4l0.1-0.1
		l0.1-0.1c1.2-1.5,1.8-3.1,2.3-4.7c0.2-0.5,0.3-1.1,0.5-1.6l0.2-0.7c0.1-0.2,0.3-0.6,0.4-0.9c0.2-0.4,0.3-0.6,0.3-0.8
		c4.7-4.3,8.6-8.7,11.5-13.8l0.4,0.2l-0.3,1.7l0,0l-0.8,0.6c1.6,2.4,3.5,4.3,5.4,6v0.2c0.1,0.8,0.3,1.5,0.4,2.3
		c0,1.3,0.3,2.5,1.1,3.3c0.6,1.2,1.3,2,2.3,2.5c0.8,0.5,1.6,0.7,2.5,0.8c0.8,0.1,1.6,0,2.4-0.3c0,0.1,0.1,0.1,0.1,0.2
		c-0.1,0.2-0.3,0.4-0.5,0.6c-1.1,1.4-1.7,2.9-1.5,4.4c0.2,1.6,1.1,3,2.6,4.2c1.3,1,2.5,1.3,3.7,1.4c0.3,0,0.6,0.1,0.8,0.1
		c0,0.1,0,0.2,0,0.2c0,0.6,0,1.3,0.1,1.7c0.2,1.6,1.7,3.4,3,4.2c1.1,0.6,2.3,1,3.7,1.1c0.7,0.1,1.4,0.1,2.1,0.1
		c0.2,1.4,0.6,2.9,1.9,4.2c1.4,1.4,3,1.7,4.6,1.9c1.9,2.6,3.9,5.1,5.9,7.6c-0.1,2.4,0.2,4.6,2,6.8c1.2,1.5,2.5,2.3,4.1,2.5
		c0.2,1,0.5,1.9,0.9,2.7c0.9,1.8,2.9,3,4.9,4c-1,6.6,0.7,13.5,2.3,20.1c0.4,1.4,0.7,2.8,1,4.2c-1.3,0.4-2.3,1.3-2.9,2.5
		c-0.2,0.4-0.4,0.7-0.5,1.1c-0.7,1.4-1.4,2.9-2.4,4c-2.1,2.5-2.1,5.5,0,7.7c0.1,0.1,0.5,0.7,0.8,1.4c-1.2,5.6-3.1,11.6-5.9,18.3
		c-0.6,1.4-0.3,3,0.7,4.5c1,1.5,2.5,2.5,4.1,2.5c0.3,0,0.5,0,0.8,0c0.6-0.1,1.2-0.2,1.9-0.3c-0.1,0.6-0.2,1.2-0.2,1.8
		c-1.3,0.1-2.4,0.6-3.3,1.7c-1,1.1-1.9,2.5-2.8,4.1c-0.2,0.3-0.4,0.5-0.5,0.8c-0.1,0.2-0.2,0.5-0.4,0.7c-1.4,3.1,0.1,6.1,2.3,7.4
		c0.1,5.4,0.2,11.2-0.7,16.8c-1.2,1-2,2.4-2,4.1c-0.2,3.8-2.2,6.7-4.2,9.9c-1.4,2.1-2.8,4.2-3.7,6.6c-1.1,3-1.7,6.2-2.4,9.2
		c0,0.1,0,0.1,0,0.2c-0.6,0.7-1.2,1.3-1.8,2c-4,4.2-8,8.5-10.7,13.3c-2.7,1.3-4.7,3.5-5.8,6.4c-1,1-1.7,2.3-1.8,3.7
		c-0.1,0.2,0,0.5,0.2,0.9c-0.6-0.1-1.1,0.1-1.4,0.5c-0.4,0.4-0.6,1-0.5,1.7c-1.1,2.5-1.8,5-1.9,7.6c-0.1,1.3,0.3,2.5,1.1,3.5
		c0.3,2.3,1,4.4,2.1,6.4c-0.1,0.4-0.2,0.8-0.3,1.2c-1.4,3.8-2.7,8.4-3.6,13.1c-0.3,1-0.4,2.1-0.5,3.1c-1.6,10.8-0.7,22,5.5,28.1
		c0.2,1.3,0.4,2.7,0.5,3.9c0.1,1.4,0.2,2.7,0.4,3.9c-0.6,2.3-1,4.7-1.3,6.7c-0.1,0.7-0.3,1.4-0.4,2.1c-0.1,0.7-0.3,1.4-0.4,2.1
		c-1.1,5.5-2.5,12.9-1.2,18.8c-2.6-0.4-6.1,1.2-6.6,5.2c-0.1,0.8-0.2,1.6-0.3,2.4c-1.3,0.4-2.3,1.3-2.8,2.5
		c-0.1,0.2-0.2,0.4-0.3,0.6c-0.3,0.7-0.6,1.3-0.8,2.1c-0.9,1.4-1.7,2.8-2.7,4.7c-1.1,2.3-0.7,5.1,1.1,6.8c-0.1,0.2-0.1,0.3-0.2,0.5
		c-2.2,2.5-4.7,4.2-7.6,5.2c-1.8,0.6-3.1,1.8-3.6,3.4c-0.5,1.4-0.3,3,0.4,4.3c-1.5,0.8-3,1.5-4.4,2.3l-1.1,0.6
		c-1.6,0.8-2.5,2.2-2.7,3.9c-0.2,2.1,0.9,4.3,2.6,5.6c1.5,1.1,2.9,2.4,4.4,3.9c-0.9,2.1-1.7,4.3-2.3,6.1c-0.3,0.2-0.6,0.4-0.8,0.5
		c-1.4,0.8-2.4,2.1-2.6,3.8c-0.3,1.7,0.3,3.6,1.5,4.9c1.1,1.2,1.5,2.4,1.8,3.8c-0.1,0.2-0.2,0.5-0.3,0.7c-0.4,1-0.8,2-1.5,2.8
		c-2.2,2.7-1.4,5.8,0.3,7.7c-0.7,1.8-0.5,3.6,0.5,5.2c1,1.6,2.7,2.7,4.5,2.8c1.4,0.2,2.9-0.2,3.9-1.6c0.3-0.4,0.5-0.8,0.8-1.2
		c1.1-2.5,2.7-4.9,4.4-7.2c2.7-3.5,5.9-6.7,8.8-9.7c3-3.1,6.2-6.1,9.6-8.6c1.3-1,2.8-1.9,4.3-2.7c0.7-0.3,1.1-0.3,1.1-0.4
		c0,0,0,0,0.1,0c1.9,0.4,4.1-0.6,5.2-2.2c0.4-0.5,0.7-1.1,0.8-1.8c0.3-1.6,0.7-2.7,1.4-3.9c0.1-0.2,0.2-0.4,0.3-0.5
		c0.1-0.2,0.3-0.3,0.4-0.5c0.8,0.7,1.8,1.2,3,1.3c2,0.4,4.3-0.5,5.4-2.1c0.7-0.9,1-2,0.9-3.3c-0.1-0.9-0.3-3.6,0.5-5.8
		c0.8,0.4,1.7,0.7,2.6,0.8h0.1c0.1,0,0.1,0,0.2,0c2.6,0.2,4.8-1.2,6.2-3.1c0.4-0.5,0.7-1.1,1-1.6c1.1-2.2,1.2-4.5,0.3-6.3
		c1.9-0.8,3.7-1.8,5.4-2.9c4.7-3.2,10.2-5.9,16-8.8c1.5-0.8,3.1-1.5,4.7-2.3c0.8,1.9,2.7,3,4.6,3.2c1.7,0.3,3.4-0.2,4.5-1.5l0,0
		c0.1-0.1,0.1-0.1,0.2-0.2c0.2-0.3,0.4-0.6,0.6-0.9c0.2-0.4,0.4-0.8,0.5-1.2c0.2-0.4,0.4-0.7,0.6-1c0.2-0.2,0.4-0.5,0.5-0.7
		c0.7,0,1.4-0.1,2.1-0.2c2.5-0.4,4.8-2.9,6.5-4.5c0.2-0.2,0.4-0.4,0.6-0.7c1.2-1.5,1.4-3.6,0.6-5.6c-0.1-0.2-0.2-0.5-0.3-0.7
		c2.3-2.4,4.4-5.1,5.9-8.2c0.3-0.5,0.5-1,0.7-1.5c0.2,0.5,0.5,1,0.9,1.4c0.7,0.8,1.8,1.2,2.9,1.4c2,0.4,4.3-0.4,5.6-2.3
		c0.6-0.8,1-1.7,1.2-2.9c0.1-0.5,0.1-1.1,0.1-1.6c0.3-2.6,1.1-4.8,2.4-6.6c0.2-0.2,0.3-0.4,0.5-0.6c0.9-1.1,1.8-1.5,2.7-1.5
		c1.3,0.2,2.6,1.5,3.7,2.8c0.7,0.9,1.8,1.4,3,1.5c2,0.4,4.4-0.5,5.5-2.3c0.7-0.9,1-2,0.9-3.2c-0.3-2.8-0.1-5.7,0.8-9
		c2.1-1.7,4.2-3.6,6.1-5.5c1.8,0.1,3.4-0.7,4.4-2.2c0.7-0.9,1.1-2,1.1-3.2c0-0.2,0-0.4,0-0.5c1.1-1.2,2.1-2.4,3.1-3.7
		c0.7,1.9,2.2,3.1,4.1,3.3c2.1,0.4,4.5-0.6,5.6-2.6c0.7-1.1,1-2.4,0.9-3.8c0.2,0,0.4,0.1,0.6,0.1h0.1c0.1,0,0.2,0,0.3,0
		c3.9,0.4,7-2,9.3-5.1c0.7-0.9,1.2-1.8,1.6-2.5c0.8-1.4,0.9-3.2,0.4-4.8c-0.4-1.3-1.3-2.3-2.4-2.8c-1.6-0.7-3.2-1.3-4.7-1.7
		c0.1-0.2,0.2-0.3,0.3-0.5c0.1-0.1,0.1-0.2,0.2-0.3c2-2.1,7.4-2.8,9.8-3.8c1.9-0.8,4-2.5,5.6-4.6c1.7-2.1,2.9-4.6,2.9-6.9
		c0-1.5-0.6-2.6-1.3-3.6c0.4,0.2,0.9,0.3,1.4,0.3c1.8,0.3,3.6-0.6,4.7-2.1c0.1-0.1,0.1-0.2,0.2-0.3c1-1.4,1.3-3.2,0.8-5
		c0.2-0.3,0.4-0.6,0.5-0.9c2.4-5.2,4.1-10.8,5.3-16.9c1.1-0.4,2-1.1,2.7-2.1l0,0c0.1-0.1,0.1-0.1,0.2-0.2c1.8-2.7,0.6-7.2-1.3-10
		C471.1,311.2,471.2,305.9,471,298.9z M320.8,253.1c0-0.1,0.1-0.1,0.1-0.2C320.9,253,320.8,253,320.8,253.1z M185.9,495.6
		L185.9,495.6c-0.5,0.5-1,1-1.4,1.5C184.9,496.5,185.4,496,185.9,495.6z M184.2,497.4c0.1-0.1,0.1-0.2,0.2-0.3
		C184.4,497.2,184.3,497.3,184.2,497.4z M291,330.3c-0.2,0.2-0.4,0.4-0.6,0.6C290.6,330.7,290.8,330.5,291,330.3
		C291.1,330.3,291.1,330.3,291,330.3z M258.7,514.4c-0.1,0.1-0.1,0.2-0.2,0.3C258.6,514.6,258.7,514.4,258.7,514.4L258.7,514.4z
		 M384.6,53.2c0.3,0,0.6,0,0.9,0c-0.2,0-0.5,0-0.8,0c-0.2,0-0.4,0-0.6,0.1l0,0L384.6,53.2z M379.2,49.8c0.1,0,0.2,0,0.3,0
		c-1.5,0-2.9,0.7-3.9,1.9C376.5,50.6,377.8,49.8,379.2,49.8z M368.2,44.4c0.1,0,0.2,0,0.3,0c-0.8,0-1.6,0.2-2.4,0.7l0,0l0.1-0.1
		C366.8,44.6,367.5,44.4,368.2,44.4z M362.9,43.2c-0.1,0-0.1,0-0.2,0C362.8,43.2,362.8,43.2,362.9,43.2z M357.4,43.8
		c1.2,0,2.4-0.2,3.5-0.5c0.6-0.2,1.1-0.2,1.7-0.2c-0.5,0-1,0.1-1.6,0.2c-1.7,0.5-3.4,0.5-5.1,0.3C356.4,43.8,356.9,43.8,357.4,43.8z
		 M354.9,43.6c0.2,0,0.3,0.1,0.5,0.1C355.2,43.6,355,43.6,354.9,43.6z M328.1,28.7c0.8,0,1.7-0.1,2.8-0.5c0.4-0.1,0.9-0.2,1.4-0.1
		c-0.5,0-0.9,0-1.3,0.2c-1.3,0.4-2.4,0.5-3.3,0.4C327.7,28.7,327.9,28.7,328.1,28.7z M318.2,19.4c0.3,0,0.5,0,0.8,0.1
		c-1.7-0.2-3.5,0.4-4.5,1.7C315.3,19.9,316.9,19.4,318.2,19.4z M313.1,24.8c-0.1,0.2-0.3,0.3-0.4,0.5l0,0
		C312.8,25.2,312.9,25,313.1,24.8z M304.5,16.9c0.1,0,0.2,0,0.3,0c-0.6,0-1.1,0.1-1.7,0.3H303C303.5,17,304,16.9,304.5,16.9z
		 M293.3,8.3c0.3,0,0.6,0,0.8,0.1c-0.5-0.1-1-0.1-1.4,0l0,0C292.9,8.3,293.1,8.3,293.3,8.3z M284.1,7c2.4-1.1,4.4-2,5.8-2
		c0.1,0,0.3,0,0.4,0c-1.8-0.1-4.6,1.4-7.8,2.8c0,0,0,0,0-0.1C283.1,7.5,283.6,7.2,284.1,7z M272.3,10.5c3.1,0,6.3-1.1,9-2.3v0.1
		c-3.3,1.4-6.9,2.6-10.5,2.1C271.3,10.4,271.8,10.5,272.3,10.5z M255,0.8c0.4,0,0.7,0,1.1,0.1c-2.1-0.2-4.3,0.4-5.7,2.2
		C251.4,1.6,253.1,0.8,255,0.8z M249.7,3.9h0.2c0,0,0,0.1-0.1,0.1c-6,1.5-11.8,5.4-15.7,10.5C237.9,9.3,243.7,5.3,249.7,3.9z
		 M209.7,20.5h0.3l0.2-0.2c1.8-2.1,3.9-3.6,5.9-4.5c1.8-0.8,3.5-1.1,5.3-1.1c0.4,0,0.8,0,1.2,0.1c-2.1-0.2-4.3,0.2-6.5,1.1
		c-2.2,1-4.3,2.6-6.1,4.7c-0.5-0.1-1-0.1-1.4-0.1C208.9,20.4,209.3,20.4,209.7,20.5z M222.9,14.8c-0.1,0-0.2,0-0.2,0
		C222.7,14.7,222.8,14.8,222.9,14.8z M205.3,20.2c0.9,0,1.9,0,2.8,0.1c-8.9-0.6-18.5,1.9-24.2,7.9l0,0l0.2-0.2
		C188.8,23.1,196.5,20.2,205.3,20.2z M176,27.2c1.2,0,2.3,0.1,3.4,0.2c-9.6-1.1-20.1,2.9-25.6,9.8l0,0l0.2-0.2
		C158.7,31,167.3,27.2,176,27.2z M145,40.6c2.6-2.1,5.3-4.2,6.9-4.2c0.1,0,0.2,0,0.3,0c-4-0.1-12,10.3-16.9,9.5c0.1,0,0.2,0,0.4,0
		C138.5,45.9,141.8,43.2,145,40.6z M129,44.8c0.6,0,1.2,0,1.8,0.1c-4.7-0.4-9.2,1-12,4.3l0,0L119,49C121.2,46.3,124.9,44.8,129,44.8
		z M115.2,48.6c0.3,0,0.7,0,1,0.1c-4.7-0.4-9.4,2.6-13.1,7.1C106.5,51.6,110.8,48.6,115.2,48.6z M97,66.7L97,66.7
		c-0.1,0.1-0.2,0.1-0.3,0.2c-2.6,1-4.8,2.7-6.5,4.9C92,69.4,94.3,67.6,97,66.7z M71.4,79.2c3.5-2.4,7.3-3.7,10.7-3.7
		c0.5,0,0.9,0,1.4,0.1c-4.3-0.4-8.6,1.4-12.1,3.8c-2.9,2-5.7,4.7-8.1,7.9C65.6,84,68.6,81.2,71.4,79.2z M52.5,120.7L52.5,120.7
		C52.6,120.8,52.6,120.8,52.5,120.7c-5.8,2-11,6.2-15.3,11.3C41.4,127,46.6,122.7,52.5,120.7z M18.8,154.4c2.3-2.6,5.1-4.1,7.8-4.2
		h0.2l0,0c-2.8,0.1-5.8,1.7-8.2,4.4c-0.5,0.6-1,1.2-1.5,1.8C17.7,155.8,18.2,155.1,18.8,154.4z M12.1,159.1c0.6-0.5,1.5-0.7,2.5-0.6
		c-0.9,0-1.8,0.2-2.6,0.7c-1.8,1.3-3.4,2.8-4.7,4.5C8.8,161.7,10.6,160.2,12.1,159.1z M8.6,224.6L8.6,224.6c-0.3,0.3-0.6,0.7-0.8,1
		C8,225.3,8.3,224.9,8.6,224.6z M30,347.2C30.1,347.2,30.1,347.2,30,347.2c-1.8,1.5-3.5,3.1-4.9,4.9C26.4,350.4,28,348.8,30,347.2z
		 M24.6,352.8c0.1-0.1,0.2-0.2,0.2-0.4C24.8,352.6,24.7,352.7,24.6,352.8z M153.5,468L153.5,468c-0.3,0.5-0.7,0.9-1.1,1.4
		c-0.1,0.1-0.2,0.3-0.3,0.4c0.1-0.2,0.3-0.4,0.5-0.6C152.9,468.8,153.2,468.4,153.5,468z M233,397.3c-1.1-0.1-2.9-0.2-4.8-0.3l0,0
		C230.2,397.1,232,397.2,233,397.3z M330.9,203.6h0.1c0,0,0,0,0,0.1c-1,0.2-1.9,0.7-2.6,1.6C329.1,204.2,330.1,203.8,330.9,203.6z
		 M323.9,248.7c0.6-0.8,1.5-1.2,2.4-1.3c0,0,0,0,0,0.1c-0.9,0.2-1.8,0.6-2.5,1.5c-0.2,0.3-0.5,0.6-0.7,0.9
		C323.3,249.4,323.6,249,323.9,248.7z M321.8,278.5C321.8,278.5,321.8,278.6,321.8,278.5c-0.3,0.3-0.5,0.5-0.8,0.8
		C321.2,279,321.5,278.7,321.8,278.5z M295.4,324.7C295.3,324.8,295.3,324.8,295.4,324.7c-0.9,0.7-1.7,1.3-2.3,2.1
		C293.7,326,294.5,325.3,295.4,324.7z M292.7,327.3c0.1-0.1,0.2-0.3,0.3-0.4C292.9,327,292.8,327.2,292.7,327.3z M288.9,335.1
		c-0.4,0-0.7,0.1-0.9,0.3c0-0.1,0.1-0.2,0.1-0.2C288.3,335.1,288.6,335.1,288.9,335.1z M286,438c0.2,0,0.4,0,0.6,0
		c-1.6-0.1-3.3,0.5-4.4,1.8C283.2,438.6,284.7,438,286,438z M280.6,445.5h0.1c0,0,0,0,0,0.1c-0.9,0.2-1.7,0.7-2.3,1.4
		C279,446.1,279.9,445.7,280.6,445.5z M267.1,468.1c2.3-0.8,4.3-2,6.1-3.6c0,0,0,0.1-0.1,0.1C271.5,466,269.5,467.3,267.1,468.1
		c-1.1,0.4-1.9,1.1-2.5,1.8C265,469.2,265.8,468.5,267.1,468.1z M258.5,478.5l1.1-0.6c1.6-0.8,3.2-1.6,4.9-2.5c0,0,0,0,0,0.1
		C262.4,476.6,260.4,477.6,258.5,478.5c-0.6,0.4-1.1,0.8-1.5,1.3C257.3,479.4,257.7,478.9,258.5,478.5z M259.7,498.5
		c0.4-0.2,0.8-0.5,1-0.7v0.1C260.4,498.2,260.1,498.4,259.7,498.5c-0.6,0.4-1.1,0.8-1.4,1.3C258.7,499.3,259.1,498.9,259.7,498.5z"
		/>
</g>
</svg>
