<?xml version="1.0" encoding="utf-8"?>
<!-- Generator: Adobe Illustrator 21.0.2, SVG Export Plug-In . SVG Version: 6.00 Build 0)  -->
<svg version="1.1" id="Chloe" xmlns="http://www.w3.org/2000/svg" xmlns:xlink="http://www.w3.org/1999/xlink" x="0px" y="0px"
	 viewBox="0 0 616 615" style="enable-background:new 0 0 616 615;" xml:space="preserve">
<style type="text/css">
	.st0{fill:#4DCEAF;}
	.st1{fill:#F2F2F2;stroke:#000000;stroke-miterlimit:10;}
	.st2{fill:#231007;stroke:#000000;stroke-miterlimit:10;}
	.st3{fill:#FFFFFF;}
	.st4{fill:#BC8875;stroke:#000000;stroke-width:0.75;stroke-miterlimit:10;}
	.st5{fill:#FFFFFF;stroke:#FFFFFF;stroke-miterlimit:10;}
	.st6{fill:#231007;stroke:#231007;stroke-miterlimit:10;}
	.st7{fill:none;stroke:#000000;stroke-width:0.5;stroke-miterlimit:10;}
	.st8{fill:#BF7B7B;stroke:#000000;stroke-width:0.75;stroke-miterlimit:10;}
	.st9{fill:none;stroke:#000000;stroke-width:0.75;stroke-miterlimit:10;}
	.st10{fill:none;}
	.st11{fill:#231007;}
	.st12{fill:none;stroke:#000000;stroke-width:0.25;stroke-miterlimit:10;}
	.st13{fill:none;stroke:#000000;stroke-miterlimit:10;}
	.st14{fill:#0C0C0C;}
	.st15{fill:#111010;}
	.st16{fill:#070707;}
	.st17{fill:#1C1A1A;}
</style>
<ellipse id="Border" class="st0" cx="308" cy="307.5" rx="307.5" ry="307.5"/>
<ellipse id="Eyes_Outer" class="st1" cx="317.4" cy="249.6" rx="141.1" ry="142.5"/>
<g id="Eyes_Inner">
	<g>
		<circle class="st2" cx="369.7" cy="268.9" r="8.3"/>
		<g>
			<g>
				<ellipse transform="matrix(0.247 -0.969 0.969 0.247 20.0988 562.9355)" cx="372.3" cy="268.5" rx="1.8" ry="2.2"/>
			</g>
			<g>
				<path class="st3" d="M374.2,269.3c-0.1,0.5-0.8,0.8-1.6,0.7c-0.7-0.2,0.7-0.3,0.8-0.9c0.1-0.5-1.1-1.3-0.3-1.1
					C373.9,268.2,374.4,268.8,374.2,269.3z"/>
			</g>
		</g>
	</g>
	<g>
		<circle class="st2" cx="280.7" cy="268.9" r="8.3"/>
		<g>
			<g>
				<ellipse transform="matrix(0.247 -0.969 0.969 0.247 -46.9158 476.6906)" cx="283.3" cy="268.5" rx="1.8" ry="2.2"/>
			</g>
			<g>
				<path class="st3" d="M285.2,269.3c-0.1,0.5-0.8,0.8-1.6,0.7c-0.7-0.2,0.7-0.3,0.8-0.9c0.1-0.5-1.1-1.3-0.3-1.1
					C284.9,268.2,285.4,268.8,285.2,269.3z"/>
			</g>
		</g>
	</g>
</g>
<path id="Neck" class="st4" d="M267.5,389.1c7.3,23.2,11.7,46.5,4.2,66.8s-22.3,38.7-51.1,55.5l49.2,12.9l48,0.5l38.2-2.2l48.2-10.2
	c-9.2-1.6-28.1-30.6-28.9-32.6c-7.3-18.5-11.6-42.5-12.6-66.3c-0.2-5-0.2-3.3,0.6-7.5c5-16.5,10.9-25.7,17.6-43.8"/>
<path id="Face" class="st4" d="M412.3,235.2c-1.3-15.6-4.6-29.2-14.2-41.8s-21-22.9-33.6-30c-12.7-7.1-32.7-11-47.3-11
	s-33.4,3.9-46,11c-12.7,7.1-24.1,17.3-33.6,30s-12.9,26.2-14.2,41.8c-1.3,15.6,2.5,33.3,1,54.1c-3.1,10.5,0.7,39.6,3.7,47.8
	c6.1,16.1,35.4,52.3,46.8,64.2c24.5,30.8,34.1,20.9,42.9,21.9c7.9,0.8,17.3,6.4,35-15.5c15.4-17.7,42.6-50.4,48.7-66.5
	s13.2-33.5,7.7-51.8C407.8,268.5,413.6,250.8,412.3,235.2z M290.3,273.7c-1.4-0.6-4.4,2.7-7.2,3.9c-0.8,0.3-6.2,1.5-9.4,2.2
	c-3.2,0.7-6.3,0.9-9.4-0.4c-3.1-1.3-5.9-2.7-8.3-4.2c-2.4-1.5-4.3-3-5.3-4.3l0.2,0l0.2,0l0.2,0l0.2,0c3.1-2.9,6.6-5.1,10.2-6.5
	c3.6-1.4,7.4-1.9,11.1-1.7c3.7,0.2,7.2,1.3,10.5,3.1c3.3,1.9,8,4.1,9.4,8.2c0,0,0,0,0,0l0.1,0.1c0,0,0,0,0-0.1
	C292.9,274.3,291.8,274.4,290.3,273.7z M376.5,275.8c-2.4,1.5-5.3,2.9-8.3,4.2c-3.1,1.3-6.2,1.1-9.4,0.4c-3.2-0.7-8.6-1.9-9.4-2.2
	c-2.8-1.2-5.8-4.5-7.2-3.9c-1.5,0.7-2.6,0.5-2.4,0.2c0,0,0,0,0,0.1l0.1-0.1c0,0,0,0,0,0c1-3.2,6.1-6.3,9.4-8.2
	c3.3-1.9,6.8-2.9,10.5-3.1s7.5,0.3,11.1,1.7c3.6,1.4,7.1,3.5,10.2,6.5l0.2,0l0.2,0l0.2,0l0.2,0C380.8,272.8,378.9,274.3,376.5,275.8
	z"/>
<path id="Nose" class="st4" d="M291.1,319.6c-3.9,7.4,4.2,12.7,7.5,11.9c11.7-1.3,10.1,6,18.1,5.6 M316,337.2
	c8.1,0.4,6.4-6.9,18.1-5.6c3.2,0.8,11.4-4.5,7.5-11.9"/>
<path id="Teeth" class="st5" d="M317.3,363.7c-14.2,0-38.9-7.2-47.3-14.9c10.8,9.9,29.4,24.6,45.5,26.2l3.1-0.1
	c16.1-1.6,33-17.3,43.9-27.2c-8.5,7.7-32.4,15.9-46.5,15.9"/>
<g id="Brows">
	<path class="st6" d="M258.2,240.4c3.1-0.4-11.7,4.7-17.7,6.8c5-4.3,12.9-12.4,15.6-12.1c12.3,1.3,24.7,1.5,37.5,2.6
		c3.8,0.3,1.2,11.9-0.1,11.6C281.9,246.5,269,245.3,258.2,240.4z"/>
	<path class="st6" d="M372.7,242.2c-3-0.7,11.4,5.5,17.2,8c-4.6-4.7-12-13.3-14.7-13.2c-12.4,0.4-24.7-0.2-37.6,0
		c-3.8,0.1-2.1,11.7-0.7,11.6C348.6,246.5,361.6,246.3,372.7,242.2z"/>
</g>
<g id="Eyelids">
	<g>
		<path class="st7" d="M248.5,264.7c20.8-17.1,35.7-7.5,46.6,3.7"/>
		<path class="st7" d="M254.3,278.4c-2.6-1.3,14.9,14.7,33.2,2.3"/>
	</g>
	<path class="st7" d="M384.1,265.7c-20.8-17.1-35.7-7.5-46.6,3.7"/>
	<path class="st7" d="M378.3,279.4c2.6-1.3-14.9,14.7-33.2,2.3"/>
</g>
<path id="Lips" class="st8" d="M317.3,363.7c-14.2,0-38.9-7.2-47.3-14.9c10.8,9.9,29.4,24.6,45.5,26.2l3.1-0.1
	c16.1-1.6,33-17.3,43.9-27.2c-8.5,7.7-32.4,15.9-46.5,15.9 M316.9,359.4c8-6.1,43.5-5.4,47.3-13.7c-0.6,0.9-6,8.3-6.5,9.2
	c-10.1,14.4-18.4,36.1-40.5,35.4l0,0c-20.8,1.5-31.7-20-41.8-34.4c-3.9-6.5-3.1-2.3-7.9-10.2c3.6,8.2,41.9,7.8,49.8,13.9"/>
<g id="Dimples">
	<path class="st9" d="M263.9,349.9c-2.5-4.5,1.2-9.8,10.9-10.6"/>
	<path class="st9" d="M369.5,350.5c4.9-4.5-6.6-10-11.2-10.3"/>
</g>
<g>
	<path class="st10" d="M405.9,83.1c0.4-0.1,0.9-0.2,1.3-0.2C406.8,82.9,406.3,82.9,405.9,83.1c-1.1,0.3-2.1,0.4-2.9,0.4
		c-0.2,0-0.3,0-0.5,0C403.5,83.6,404.6,83.5,405.9,83.1z"/>
	<path class="st10" d="M394,74.3c-0.3,0-0.6-0.1-0.8-0.1c-1.3,0-2.9,0.5-3.7,1.8C390.5,74.7,392.3,74.1,394,74.3z"/>
	<path class="st10" d="M379.8,71.7c-0.1,0-0.2,0-0.3,0c-0.5,0-1,0.1-1.5,0.2c0,0,0.1,0,0.1,0C378.7,71.8,379.3,71.7,379.8,71.7z"/>
	<path class="st10" d="M437.7,97.9c0.1,0,0.1,0,0.2,0C437.8,97.9,437.8,97.9,437.7,97.9z"/>
	<path class="st10" d="M430.3,98.4c-0.2,0-0.3,0-0.5-0.1C430,98.3,430.2,98.3,430.3,98.4z"/>
	<path class="st10" d="M436,98.1c0.6-0.2,1.1-0.2,1.6-0.2C437,97.8,436.5,97.9,436,98.1c-1.2,0.3-2.3,0.4-3.5,0.4
		c-0.5,0-1,0-1.6-0.1C432.6,98.6,434.3,98.6,436,98.1z"/>
	<path class="st10" d="M367.7,63.2c0.5-0.1,1-0.1,1.4,0c-0.3,0-0.6-0.1-0.8-0.1C368.1,63.1,367.9,63.1,367.7,63.2
		C367.7,63.2,367.7,63.2,367.7,63.2z"/>
	<path class="st10" d="M297.6,69.5c0.1,0,0.2,0,0.2,0C297.8,69.6,297.7,69.5,297.6,69.5z"/>
	<path class="st10" d="M284.9,75.3c1.8-2,3.9-3.7,6.1-4.7c2.2-0.9,4.4-1.3,6.5-1.1c-0.4,0-0.8-0.1-1.2-0.1c-1.7,0-3.5,0.4-5.3,1.1
		c-2.1,0.9-4.1,2.5-5.9,4.5L284.9,75.3l-0.3,0c-0.4,0-0.8-0.1-1.2-0.1C284,75.2,284.5,75.3,284.9,75.3z"/>
	<path class="st10" d="M331.1,55.7c-0.4-0.1-0.7-0.1-1.1-0.1c-1.9,0-3.6,0.8-4.6,2.3C326.8,56.1,329,55.4,331.1,55.7z"/>
	<path class="st10" d="M441.1,99.8c0.8-0.5,1.6-0.7,2.4-0.7c-0.1,0-0.2,0-0.3,0c-0.7,0-1.4,0.2-2.1,0.6L441.1,99.8
		C441.1,99.8,441.1,99.8,441.1,99.8z"/>
	<path class="st10" d="M356.3,63.1C356.4,63.1,356.4,63.1,356.3,63.1c-2.8,1.1-5.9,2.2-9,2.2c-0.5,0-1,0-1.5-0.1
		C349.4,65.7,353.1,64.5,356.3,63.1z"/>
	<path class="st10" d="M365.3,59.8c-0.1,0-0.3,0-0.4,0c-1.4,0-3.4,0.9-5.8,2c-0.5,0.2-1.1,0.5-1.6,0.7c0,0,0,0,0,0.1
		C360.8,61.1,363.5,59.7,365.3,59.8z"/>
	<path class="st10" d="M324.8,58.7C324.8,58.7,324.9,58.7,324.8,58.7l-0.1,0c-6,1.5-11.8,5.5-15.6,10.6
		C313,64.1,318.8,60.2,324.8,58.7z"/>
	<path class="st10" d="M379.1,532l-0.2,0c-0.1,0-0.2,0-0.3,0.1c0,0-0.1,0.1-0.1,0.1c0,0,0,0,0,0C378.7,532.2,378.9,532.1,379.1,532
		C379.1,532,379.1,532,379.1,532z"/>
	<path class="st10" d="M529.5,278.1C529.5,278.1,529.5,278.1,529.5,278.1c-0.3,0.1-0.6,0.2-0.9,0.3l-0.1,0c0,0,0,0,0.1,0
		C528.9,278.4,529.2,278.2,529.5,278.1z"/>
	<path class="st10" d="M486.1,445l-0.2,0c-0.1,0-0.2,0-0.2,0c0,0,0,0,0,0C485.8,445.1,486,445,486.1,445
		C486.1,445,486.1,445,486.1,445z"/>
	<path class="st10" d="M530.7,382.6c0,0.1-0.1,0.2-0.1,0.3C530.7,382.9,530.7,382.8,530.7,382.6L530.7,382.6z"/>
	<path class="st10" d="M395.9,307.3c0,0.1-0.1,0.1-0.1,0.2C395.8,307.4,395.9,307.4,395.9,307.3z"/>
	<path class="st10" d="M454.5,104.6c-0.1,0-0.2,0-0.3,0c-1.3,0-2.7,0.8-3.6,2C451.5,105.3,453,104.5,454.5,104.6z"/>
	<path class="st10" d="M366,384.6C366.1,384.6,366.1,384.6,366,384.6c-0.2,0.2-0.4,0.4-0.6,0.6C365.6,385,365.8,384.8,366,384.6z"/>
	<path class="st10" d="M333.7,568.4C333.7,568.4,333.7,568.4,333.7,568.4c0,0-0.1,0.1-0.2,0.3C333.6,568.6,333.6,568.5,333.7,568.4z
		"/>
	<path class="st10" d="M459.2,108c0.2,0,0.4,0,0.6-0.1c0.3,0,0.5,0,0.8,0c-0.3,0-0.6,0-0.9,0L459.2,108
		C459.2,108,459.2,108,459.2,108z"/>
	<path class="st10" d="M255.1,109.4c0.3-0.2,0.7-0.4,1-0.7c0,0,0,0,0-0.1c-0.3,0.2-0.6,0.4-0.8,0.6
		C255.2,109.3,255.2,109.4,255.1,109.4z"/>
	<path class="st10" d="M260.9,549.6C260.9,549.6,260.9,549.6,260.9,549.6c-0.6,0.4-1,0.9-1.5,1.5C259.9,550.5,260.4,550,260.9,549.6
		z"/>
	<path class="st10" d="M259.4,551.2c-0.1,0.1-0.1,0.2-0.2,0.3C259.3,551.3,259.4,551.2,259.4,551.2z"/>
	<path class="st10" d="M388.1,79.6c-0.2,0.2-0.3,0.3-0.5,0.4c0,0,0,0,0,0C387.8,80,387.9,79.8,388.1,79.6z"/>
	<path class="st10" d="M361.7,492.1c-0.2,0-0.4,0-0.6,0c-1.3,0-2.8,0.6-3.8,1.9C358.4,492.6,360.1,492,361.7,492.1z"/>
	<path class="st10" d="M396.8,333C396.8,333,396.8,332.9,396.8,333c-0.3,0.2-0.5,0.4-0.8,0.7C396.3,333.4,396.5,333.2,396.8,333z"/>
	<path class="st10" d="M363.9,389.4c-0.3-0.1-0.6,0-0.7,0.1c-0.1,0.1-0.1,0.1-0.1,0.2C363.2,389.5,363.5,389.4,363.9,389.4z"/>
	<path class="st10" d="M370.3,379.1C370.3,379.1,370.3,379.1,370.3,379.1c-0.8,0.5-1.6,1.2-2.3,2
		C368.7,380.4,369.4,379.7,370.3,379.1z"/>
	<path class="st10" d="M406,258.2C406,258.1,406,258.1,406,258.2l-0.1,0c-0.7,0.2-1.7,0.6-2.4,1.6C404.1,258.9,405,258.4,406,258.2z
		"/>
	<path class="st10" d="M398.7,303.3c0.7-0.8,1.6-1.3,2.5-1.5c0,0,0,0,0-0.1c-0.9,0.1-1.7,0.5-2.4,1.3c-0.3,0.3-0.6,0.7-0.8,1.1
		C398.3,303.8,398.5,303.5,398.7,303.3z"/>
	<path class="st10" d="M333.5,532.6c1.9-1,4-2,6-3.1c0,0,0,0,0-0.1c-1.6,0.9-3.3,1.7-4.9,2.5L333.5,532.6c-0.7,0.3-1.2,0.7-1.5,1.2
		C332.3,533.4,332.8,532.9,333.5,532.6z"/>
	<path class="st10" d="M334.7,552.6c0.4-0.2,0.7-0.4,1-0.7c0,0,0-0.1,0-0.1C335.5,552.1,335.1,552.3,334.7,552.6
		c-0.6,0.2-1.1,0.7-1.4,1.2C333.7,553.4,334.1,553,334.7,552.6z"/>
	<path class="st10" d="M258.9,83.1c5.7-6,15.2-8.5,24.2-7.9c-0.9-0.1-1.9-0.1-2.8-0.1c-8.8,0-16.5,2.9-21.2,7.9L258.9,83.1
		C258.9,83.1,258.9,83.1,258.9,83.1z"/>
	<path class="st10" d="M308,451.5c-1-0.1-2.8-0.2-4.8-0.3c0,0,0,0,0,0C305.1,451.3,306.9,451.4,308,451.5z"/>
	<path class="st10" d="M342.2,522.1c2.3-0.8,4.3-2,6-3.5c0,0,0-0.1,0.1-0.1C346.4,520.1,344.4,521.3,342.2,522.1
		c-1.4,0.4-2.1,1.1-2.6,1.7C340.2,523.1,341,522.5,342.2,522.1z"/>
	<path class="st10" d="M355.7,499.6C355.7,499.6,355.7,499.6,355.7,499.6l-0.1,0c-0.7,0.2-1.6,0.6-2.2,1.5
		C354,500.3,354.8,499.9,355.7,499.6z"/>
	<path class="st10" d="M368,381.2c-0.1,0.1-0.2,0.3-0.3,0.4C367.8,381.5,367.9,381.3,368,381.2z"/>
	<path class="st10" d="M191.2,103.4c-0.3,0-0.7-0.1-1-0.1c-4.4,0-8.7,3-12.1,7.1C181.8,106,186.5,103,191.2,103.4z"/>
	<path class="st10" d="M193.8,103.9c2.8-3.3,7.3-4.8,12-4.3c-0.6-0.1-1.2-0.1-1.8-0.1c-4.1,0-7.8,1.5-10.1,4.2L193.8,103.9
		C193.7,103.9,193.8,103.9,193.8,103.9z"/>
	<path class="st10" d="M171.7,121.6c0.1-0.1,0.2-0.1,0.3-0.2l0,0c-2.6,0.9-5,2.7-6.8,5.1C166.9,124.3,169.1,122.6,171.7,121.6z"/>
	<path class="st10" d="M146.3,134.1c3.5-2.4,7.9-4.2,12.1-3.8c-0.5,0-0.9-0.1-1.4-0.1c-3.4,0-7.2,1.3-10.7,3.7
		c-2.8,1.9-5.7,4.7-8.1,8C140.6,138.8,143.5,136,146.3,134.1z"/>
	<path class="st10" d="M228.8,92c5.5-6.9,16-10.9,25.6-9.8c-1.1-0.1-2.2-0.2-3.4-0.2c-8.6,0-17.3,3.8-22,9.8L228.8,92
		C228.7,92,228.8,92,228.8,92z"/>
	<path class="st10" d="M227.4,523.4c0.4-0.5,0.8-0.9,1.2-1.4c0,0,0,0,0,0c-0.3,0.4-0.7,0.8-1,1.2c-0.2,0.2-0.3,0.4-0.5,0.6
		C227.2,523.7,227.3,523.5,227.4,523.4z"/>
	<path class="st10" d="M227.2,91.1c-0.1,0-0.2,0-0.3,0c-1.6,0-4.3,2.2-6.9,4.2c-3.2,2.6-6.5,5.3-9.3,5.3c-0.1,0-0.2,0-0.4,0
		C215.2,101.4,223.2,91,227.2,91.1z"/>
	<path class="st10" d="M105.1,401.5C105.1,401.4,105.1,401.4,105.1,401.5c-2,1.5-3.6,3.2-4.9,4.9
		C101.5,404.5,103.2,402.9,105.1,401.5z"/>
	<path class="st10" d="M127.6,175.4C127.6,175.4,127.6,175.4,127.6,175.4L127.6,175.4c-6,1.9-11.2,6.2-15.4,11.2
		C116.5,181.5,121.7,177.3,127.6,175.4z"/>
	<path class="st10" d="M87.1,213.7c0.7-0.5,1.6-0.7,2.6-0.7c-1-0.1-1.9,0.1-2.5,0.6c-1.5,1.1-3.3,2.7-4.7,4.6
		C83.6,216.5,85.2,215,87.1,213.7z"/>
	<path class="st10" d="M99.9,406.6c-0.1,0.1-0.2,0.2-0.2,0.4C99.7,406.9,99.8,406.8,99.9,406.6z"/>
	<path class="st10" d="M83.6,279C83.6,279,83.6,279,83.6,279c-0.3,0.3-0.6,0.6-0.8,1C83,279.7,83.3,279.4,83.6,279z"/>
	<path class="st10" d="M93.6,209.2c2.4-2.7,5.4-4.3,8.2-4.4c0,0,0,0,0,0l-0.2,0c-2.7,0.1-5.6,1.7-7.8,4.2c-0.6,0.6-1.1,1.3-1.6,2
		C92.6,210.4,93.1,209.8,93.6,209.2z"/>
	<path class="st11" d="M546,353.2l0.1-0.6c0.5-0.3,0.9-0.6,1.3-1c0.6-0.7,1.2-1.3,1.7-2c0,0,0,0,0,0c0.4-0.5,0.7-0.9,1-1.4
		c6.3-8.7,6.5-17.7,0.4-25.6c-2.4-3.2-5.5-5.8-8.4-8.4c-0.5-0.5-1-0.9-1.5-1.4c-0.2-0.2-0.5-0.4-0.8-0.7l0,0
		c0.1-1.8,0.2-3.5,0.3-5.2c0.3-6.9,0.1-13.6-0.7-19.9c0.8-2.4,1.2-4.4,1.3-6.3c0.4-5.8-2.2-10-7.7-12.6c1.3-1.7,1.7-3.9,1.8-6.5
		c0-0.1,0-0.1,0-0.2l0-0.2c0-2-0.9-3.6-2.5-4.5c0.4-2-0.4-4.2-1.2-6.2c-0.1-0.3-0.3-0.7-0.4-1c1.7-5.7,2.4-10.5,2.2-14.7
		c0.2-0.2,0.3-0.3,0.4-0.5c1.4-1.7,1.7-4.1,0.6-6.3c-2-4.5-5.5-7.7-8.3-10.1c-0.4-2.6-1.7-5-3.8-7c-0.1-8-6.6-14.7-16-16.2
		c-0.5-1.7-0.9-3.4-1.3-4.9c-0.5-2.1-2.2-3.2-4-4.1c0.3-0.5,0.7-1.1,1-1.7c0.9-1.8,1.1-3.6,0.3-5.1c-0.9-1.9-2.9-3.4-5.4-4
		c0-0.9,0-1.6-0.1-2.4c-0.9-7.1-5.8-11-11.2-14.7c-4.4-3-4.7-8.5-4.9-13.8c-0.1-1.8-0.2-3.6-0.4-5.2c-0.7-4.7-4.4-8.6-7.6-12
		c-0.9-0.9-1.7-1.8-2.5-2.7c-0.4-2-1.5-3.5-3-4.1c-1-1.6-1.9-3.3-2.7-4.8c0.9-2,0.8-4.4-0.3-6.1c-0.8-1.3-2.1-2.1-3.7-2.1
		c-0.2,0-0.5,0-0.8,0.1l-0.2,0c-0.5-0.6-0.9-1.2-1.4-1.7c-1-1.1-2.3-1.7-3.7-1.7c-1.6,0-3.3,0.9-4.4,2.3c-0.6-0.6-0.9-1.3-1-2.2
		c-0.2-3-2.8-5.6-5.6-5.6c-0.8,0-1.5,0.2-2.2,0.6c-1.3-1.6-3.3-2.1-5.4-1.5c-1,0.3-2.1,0.4-3.2,0.4c-4.2,0-8.5-2-11.8-3.8
		c-2.2-1.2-4.2-2.6-6-4.1c-0.7-0.6-1.4-1.3-1.9-2c-0.1-0.1-0.1-0.1-0.2-0.2c0.1-1.2-0.3-2.4-1.1-3.4c-1.4-1.6-3.9-2.4-5.8-1.9
		c-4.1,1.2-6,0-7-4.9c-0.6-2.8-3.1-4-5.4-4c-2.2,0-4.7,1.2-5.2,4c-0.2,1.2-0.6,2-1.1,2.1c-0.5-0.5-1-1-1.5-1.5
		c-0.2-0.5-0.3-1-0.3-1.6c-0.2-3.1-2.5-5.4-5.5-5.4c-0.9,0-1.8,0.2-2.6,0.6c-0.5-0.3-1-0.5-1.5-0.7c-0.7-1.2-1.1-2.5-1.5-3.8
		l-0.3-0.9c-0.8-2.4-2.8-3.8-5.3-3.8c-0.1,0-0.2,0-0.4,0c-0.3-2.3-1.2-3.4-3-3.4c-1.6,0-3.7,1-6.2,2.1c-0.6,0.3-1.1,0.5-1.7,0.8
		l-0.6,0.3c-2.8,1.2-5.9,2.3-9,2.3c-4.2,0-7.6-2-10.5-6.2c-1.5-2.2-4.1-3.5-6.8-3.5c-2.5,0-4.5,1.1-5.8,3.2
		c-7.2,1.8-14,7.1-17.8,13.6c-0.6,0.2-1.3,0.4-1.9,0.6c-2-2.3-4.9-3.5-8.3-3.5c-1.9,0-3.8,0.4-5.7,1.2c-2.1,0.9-4.3,2.5-6.1,4.6
		c-1.4-0.2-2.8-0.2-4.2-0.2c-8.9,0-16.8,2.9-21.7,8c-2.4-0.7-4.9-1-7.6-1c-8.7,0-17.4,3.8-22.5,9.7c-0.4-0.4-1-0.6-1.6-0.6
		c-2,0-4.7,2.2-7.5,4.5c-2.9,2.4-6.3,5.1-8.7,5.1c-0.3,0-0.6,0-0.9-0.1c-1.9-0.6-3.9-1-5.9-1c-4.3,0-8.1,1.6-10.6,4.3
		c-1-0.3-2.1-0.5-3.2-0.5c-8,0-15.8,9.2-18.8,18.2c-4,1.4-7.3,4.7-9.4,9.3c-0.1,0.1-0.1,0.1-0.2,0.2c-0.1,0-0.2-0.1-0.3-0.1
		c-1.4-0.5-2.9-0.8-4.4-0.8c-3.6,0-7.6,1.4-11.3,3.9c-6.5,4.5-13.6,13.4-13.7,22.3c-3,4.3-4.9,9.3-5.5,14.1c-0.2,1.7-0.2,3.4,0.1,5
		c-12.5,4.4-21.5,18.4-25.6,29.3c-2.9,0.2-5.8,1.9-8.2,4.5c-1,1.1-1.9,2.3-2.9,3.6c-1.3-0.2-2.7,0-3.6,0.7c-7.2,5.3-9.4,12-5.8,18.3
		c0.8,1.4,1.9,2.7,3.1,3.6c0.7,0.8,1.7,1.4,2.7,1.7c0.2,0.1,0.4,0.2,0.6,0.3c-0.4,1.1-0.6,2.3-0.7,3.6c-2.9,6.9-4.4,14.6-5.1,20.2
		c-0.6,4.8-0.8,11.8,1.4,17.9c-4.8,5.6-6.9,14.6-7.2,21.2c-0.4,7.4,1.4,14.2,5,19.6c0.5,0.8,1.1,1.5,1.9,2.3
		c1.1,2.9,2.4,5.7,3.7,8.5c0.6,1.4,1.3,2.8,1.9,4.1c-3.6,5.2-4.3,11.5-1.9,17.8c0.7,1.8,1.6,3.4,2.6,4.8c-1.2,2.2-2.3,4.8-3.3,7.7
		c-3.2,9.7-3.4,19.7-0.4,26.9c2.3,5.5,7.5,9.6,13,10.4c0,0,0.1,0,0.1,0c0.3,0,0.6,0.1,0.9,0.1c1.5,0.1,3,0,4.5-0.4
		c-4.2,3.6-6.7,7.6-7.4,11.8c-1,6.1,1.6,12.3,7.1,16.7c2.2,1.7,6.4,4.6,11.2,5.1c1.5,0.2,3,0.2,4.4-0.1c0,0,0,0,0,0
		c1.1,4.7,4.7,8.9,9.5,10.9c1.4,0.6,2.9,1,4.4,1.2c1.3,0.2,2.5,0.2,3.6,0c1.2,2,3.2,3.5,5.9,4.4c0.9,0.3,1.9,0.5,2.9,0.6
		c0.2,0,0.4,0,0.6,0.1c0.5,0.3,1.1,0.5,1.6,0.8c-0.4,2-0.4,4.1-0.2,6.2c0.1,0.7,0.3,1.3,0.5,2c-1.3,3.2-1.7,6.8-1.3,10.3
		c0.4,2.9,2.2,5,4.8,5.3c1.1,0.2,2.3,0.1,3.5-0.5c3.6-1.7,7.1-2.4,10.6-2.5c-0.4,1.3-0.2,2.7,0.6,4c1,1.6,2.6,2.7,4.3,2.9
		c0.2,0,0.5,0.1,0.7,0.1c1.2,0,2.5,0,3.7-0.1c0.5,2.1,1.5,3.8,2.8,5.2c1.8,1.9,4.5,2.6,6.6,2.9c-0.1,0.8-0.1,1.8-0.1,2.8
		c0,2.4,1.6,4.6,4,5.3c2.1,0.6,4,1.6,6.2,2.8c-0.2,1.1-0.1,2.3,0.2,3.5c0.1,0.5,0.3,1,0.5,1.5c-0.3,5.7,2.7,10.1,8.3,12.1
		c0.9,0.3,1.9,0.5,2.8,0.7c0.3,0,0.5,0.1,0.8,0.1c0,0,0.1,0,0.1,0c2.2,0.2,4.3-0.2,6.3-1.1c0.4,0.3,0.8,0.6,1.2,0.8
		c1.3,0.8,2.7,1.3,4.2,1.5c0.2,0,0.4,0.1,0.5,0.1c0.1,0,0.2,0,0.4,0c1.9,0.2,3.7-0.1,5.6-0.7c0.4,1,1,1.9,1.7,2.7
		c0.3,0.3,0.5,0.6,0.8,0.8c-0.3,0.4-0.6,0.7-0.8,1c-1.5,1.7-1.9,4.1-1,6.2c0.8,1.8,2.4,2.9,4.3,3.1c0.3,0,0.6,0.1,0.9,0.1
		c1.9,0,3.4-0.2,4.8-0.5c1.1,0.9,2.5,1.5,3.9,1.6c0.5,0.1,1,0.1,1.5,0c0.6-0.1,1.2-0.2,1.8-0.2c-0.4,2,0.3,3.9,1.9,5.3
		c-1.2,3-1.9,6.2-2,9.6c0,1.4,0.5,2.8,1.5,3.8c1,1,2.2,1.6,3.5,1.7c0.2,0,0.5,0,0.7,0c3.1-0.1,7.1-0.8,10.1-2.5
		c-0.7,1-1.4,2.1-1.9,3.1c-0.2,0.4-0.4,0.8-0.7,1.2c-1,1.7-1,3.6-0.1,5.4c0.9,1.5,2.4,2.5,4,2.8c0.1,0,0.2,0,0.3,0
		c0.1,0,0.1,0,0.2,0c0.6,0.1,1.2,0.1,1.9-0.1c0,0,0.1,0,0.1,0c1,1.5,2.8,2.5,4.6,2.6c1.1,0.2,2.2,0,3.1-0.7c-1,4.3-0.9,8.7,0.3,14.2
		c0.6,2.5,2.6,3.7,4.6,3.9c1.9,0.3,3.9-0.4,5-2c0.4-0.5,0.7-1.2,0.9-1.9c0.1-0.6,0.3-1.2,0.5-1.7c1.7,1.2,3.4,2.5,5.1,3.7
		c0.7,0.5,1.4,0.8,2.2,0.9c1.9,0.3,3.8-0.9,5-2.5c0.4-0.5,0.7-1.1,0.9-1.6c1.9-4.7,2.6-9.6,2.7-14.4c6.2-6.5,5.9-13.9,5.6-21.8
		c-0.1-2.6-0.2-5.3-0.1-8.1c0.4,0.2,0.8,0.4,1.2,0.5c0.3,0.1,0.7,0.2,1.1,0.2c1.7,0.3,3.7-0.6,4.7-1.9c0.2-0.3,0.4-0.5,0.6-0.8
		c2-4.2,3.6-10.3,3-15.6c2.3-1,5-2.5,7.8-5.5c3.7-3.8,5-8.6,4.9-13.7c0.8-2.4,1.2-5,0.5-7.5c-0.8-2.8-2.4-5-4.1-6.6
		c-0.4-0.9-0.7-1.7-1.1-2.6c-0.1-1.3-0.4-2.4-0.9-3.5c0.2-2.7-1.6-5.2-4.7-6.8c-0.4-0.6-0.8-1.3-1.2-1.9c-0.3-5.7-1.4-11.9-5.5-17.1
		l0,0c-0.3-0.4-4-0.7-6.8-0.8c-0.7-1.1-1.4-2.1-2.1-3.2c1.5-0.7,2.5-2.1,2.3-4.3c-0.3-3.6-1.5-6.6-2.6-10.1
		c-0.6-2.1-2.8-3.6-4.9-3.7c-2-3.9-4.9-7.5-7.9-10.3c-1-3.9-3.2-8-4.5-10.6c-2.2-4.1-4.9-7.9-7.2-11.9c0,0,0-0.1,0-0.1
		c-0.9-2.2-2.3-4.2-3.2-6.4c-1-2.5-3.4-3.5-5.5-3.3c-0.5-1-0.7-2.1-0.3-3.2c1.7-5.5-0.1-9.7-5.2-12.4c-1-0.5-2-0.7-2.8-0.6
		c-1.5-2.2-3.2-4.3-5.1-5.9c1.2,0.1,1.8,0.1,1.5,0c0,0,0,0,0,0c0.2-0.1,0.3-0.2,0.3-0.4l0-0.5l-0.1,0c-0.1-5.6-1.6-10.2-4.4-13.6
		c-2.4-2.9-5.7-4.7-9.7-5.3c0.8-11.2-4.4-21.3-13.4-26.6c0-4.4-0.7-8.7-1.3-13c-0.7-4.6-1.5-9.4-1.3-14.1c0.1-2.6,1.4-6.5,2.6-10.2
		c0.6-1.9,1.2-3.7,1.6-5.2c1.6-5.8,2.9-11.4,1.5-16.8c-0.4-1.5-1-2.8-2-3.8c0.6-1.3,1.2-2.8,1.7-4.3l0.5-1.4c0.4-1.1,0.3-2.7-0.4-4
		c3.7-1.9,7.5-4,10.2-7c0.2-0.2,0.4-0.5,0.6-0.7c1.1-1.4,1.8-3,1.9-4.6c2.9-1,5.5-2.7,7.7-5.1c1.8-0.5,3.5-1.4,5.1-2.5
		c1.1,0.4,2.3,0.7,3.6,0.9c0.2,0,0.3,0,0.5,0.1c0.3,0,0.6,0.1,1,0.1c8.4,0.7,18.1-3.9,25-8.5c0.3,0,0.5-0.1,0.8-0.1
		c0.4,0,0.8,0,1.1,0c0.1,0,0.2,0,0.3,0c0.1,0,0.2,0,0.3,0c0.4,0.1,0.8,0.1,0.8,0c0.9,0.8,2,1.2,3.1,1.4c1.9,0.4,3.8-0.3,4.9-2
		c0.4-0.5,0.7-1.1,0.9-1.8c0.9-2.9,2.7-6,5.3-9.2c1.1-0.6,2.2-1.2,3.4-1.8c0.9,0.7,2,1.1,3.2,1.2c1.1,0.1,2.1,0,3-0.6
		c0.3,0.1,0.6,0.1,1,0.2c0.4,0,0.8,0.1,1.2,0.1c1.4,0,3.2-0.7,4-2c0.2-0.3,0.4-0.5,0.5-0.8l0.4-0.8c0.7-1.5,0.8-3.1,0.3-4.6
		c2.5-2.5,6.1-3.9,9.5-4.8c0.1,0,0.1,0,0.2,0c1.5,0.2,3-0.1,4-1.4c0,0,0.1-0.1,0.1-0.1c0,0,0.1-0.1,0.1-0.1c1.2-1.5,1.8-3.1,2.3-4.7
		c0.2-0.5,0.3-1.1,0.5-1.6l0.2-0.7c0.1-0.2,0.3-0.6,0.4-0.9c0.2-0.4,0.3-0.6,0.3-0.8c4.7-4.3,8.6-8.7,11.5-13.8l0.4,0.2l-0.3,1.7
		c0,0,0,0,0,0l-0.8,0.6c1.6,2.4,3.5,4.3,5.4,6l0,0.2c0.1,0.8,0.3,1.5,0.4,2.3c0,1.3,0.3,2.5,1.1,3.3c0.6,1.2,1.3,2,2.3,2.5
		c0.8,0.5,1.6,0.7,2.5,0.8c0.8,0.1,1.6,0,2.4-0.3c0,0.1,0.1,0.1,0.1,0.2c-0.1,0.2-0.3,0.4-0.5,0.6c-1.1,1.4-1.7,2.9-1.5,4.4
		c0.2,1.6,1.1,3,2.6,4.2c1.3,1,2.5,1.3,3.7,1.4c0.3,0,0.6,0.1,0.8,0.1c0,0.1,0,0.2,0,0.2c0,0.6,0,1.3,0.1,1.7c0.2,1.6,1.7,3.4,3,4.2
		c1.1,0.6,2.3,1,3.7,1.1c0.7,0.1,1.4,0.1,2.1,0.1c0.2,1.4,0.6,2.9,1.9,4.2c1.4,1.4,3,1.7,4.6,1.9c1.9,2.6,3.9,5.1,5.9,7.6
		c-0.1,2.4,0.2,4.6,2,6.8c1.2,1.5,2.5,2.3,4.1,2.5c0.2,1,0.5,1.9,0.9,2.7c0.9,1.8,2.9,3,4.9,4c-1,6.6,0.7,13.5,2.3,20.1
		c0.4,1.4,0.7,2.8,1,4.2c-1.3,0.4-2.3,1.3-2.9,2.5c-0.2,0.4-0.4,0.7-0.5,1.1c-0.7,1.4-1.4,2.9-2.4,4c-2.1,2.5-2.1,5.5,0,7.7
		c0.1,0.1,0.5,0.7,0.8,1.4c-1.2,5.6-3.1,11.6-5.9,18.3c-0.6,1.4-0.3,3,0.7,4.5c1,1.5,2.5,2.5,4.1,2.5c0.3,0,0.5,0,0.8,0
		c0.6-0.1,1.2-0.2,1.9-0.3c-0.1,0.6-0.2,1.2-0.2,1.8c-1.3,0.1-2.4,0.6-3.3,1.7c-1,1.1-1.9,2.5-2.8,4.1c-0.2,0.3-0.4,0.5-0.5,0.8
		c-0.1,0.2-0.2,0.5-0.4,0.7c-1.4,3.1,0.1,6.1,2.3,7.4c0.1,5.4,0.2,11.2-0.7,16.8c-1.2,1-2,2.4-2,4.1c-0.2,3.8-2.2,6.7-4.2,9.9
		c-1.4,2.1-2.8,4.2-3.7,6.6c-1.1,3-1.7,6.2-2.4,9.2c0,0.1,0,0.1,0,0.2c-0.6,0.7-1.2,1.3-1.8,2c-4,4.2-8,8.5-10.7,13.3
		c-2.7,1.3-4.7,3.5-5.8,6.4c-1,1-1.7,2.3-1.8,3.7c-0.1,0.2,0,0.5,0.2,0.9c-0.6-0.1-1.1,0.1-1.4,0.5c-0.4,0.4-0.6,1-0.5,1.7
		c-1.1,2.5-1.8,5-1.9,7.6c-0.1,1.3,0.3,2.5,1.1,3.5c0.3,2.3,1,4.4,2.1,6.4c-0.1,0.4-0.2,0.8-0.3,1.2c-1.4,3.8-2.7,8.4-3.6,13.1
		c-0.3,1-0.4,2.1-0.5,3.1c-1.6,10.8-0.7,22,5.5,28.1c0.2,1.3,0.4,2.7,0.5,3.9c0.1,1.4,0.2,2.7,0.4,3.9c-0.6,2.3-1,4.7-1.3,6.7
		c-0.1,0.7-0.3,1.4-0.4,2.1c-0.1,0.7-0.3,1.4-0.4,2.1c-1.1,5.5-2.5,12.9-1.2,18.8c-2.6-0.4-6.1,1.2-6.6,5.2
		c-0.1,0.8-0.2,1.6-0.3,2.4c-1.3,0.4-2.3,1.3-2.8,2.5c-0.1,0.2-0.2,0.4-0.3,0.6c-0.3,0.7-0.6,1.3-0.8,2.1c-0.9,1.4-1.7,2.8-2.7,4.7
		c-1.1,2.3-0.7,5.1,1.1,6.8c-0.1,0.2-0.1,0.3-0.2,0.5c-2.2,2.5-4.7,4.2-7.6,5.2c-1.8,0.6-3.1,1.8-3.6,3.4c-0.5,1.4-0.3,3,0.4,4.3
		c-1.5,0.8-3,1.5-4.4,2.3l-1.1,0.6c-1.6,0.8-2.5,2.2-2.7,3.9c-0.2,2.1,0.9,4.3,2.6,5.6c1.5,1.1,2.9,2.4,4.4,3.9
		c-0.9,2.1-1.7,4.3-2.3,6.1c-0.3,0.2-0.6,0.4-0.8,0.5c-1.4,0.8-2.4,2.1-2.6,3.8c-0.3,1.7,0.3,3.6,1.5,4.9c1.1,1.2,1.5,2.4,1.8,3.8
		c-0.1,0.2-0.2,0.5-0.3,0.7c-0.4,1-0.8,2-1.5,2.8c-2.2,2.7-1.4,5.8,0.3,7.7c-0.7,1.8-0.5,3.6,0.5,5.2c1,1.6,2.7,2.7,4.5,2.8
		c1.4,0.2,2.9-0.2,3.9-1.6c0.3-0.4,0.5-0.8,0.8-1.2c1.1-2.5,2.7-4.9,4.4-7.2c2.7-3.5,5.9-6.7,8.8-9.7c3-3.1,6.2-6.1,9.6-8.6
		c1.3-1,2.8-1.9,4.3-2.7c0.7-0.3,1.1-0.3,1.1-0.4c0,0,0,0,0.1,0c1.9,0.4,4.1-0.6,5.2-2.2c0.4-0.5,0.7-1.1,0.8-1.8
		c0.3-1.6,0.7-2.7,1.4-3.9c0.1-0.2,0.2-0.4,0.3-0.5c0.1-0.2,0.3-0.3,0.4-0.5c0.8,0.7,1.8,1.2,3,1.3c2,0.4,4.3-0.5,5.4-2.1
		c0.7-0.9,1-2,0.9-3.3c-0.1-0.9-0.3-3.6,0.5-5.8c0.8,0.4,1.7,0.7,2.6,0.8c0,0,0.1,0,0.1,0c0.1,0,0.1,0,0.2,0
		c2.6,0.2,4.8-1.2,6.2-3.1c0.4-0.5,0.7-1.1,1-1.6c1.1-2.2,1.2-4.5,0.3-6.3c1.9-0.8,3.7-1.8,5.4-2.9c4.7-3.2,10.2-5.9,16-8.8
		c1.5-0.8,3.1-1.5,4.7-2.3c0.8,1.9,2.7,3,4.6,3.2c1.7,0.3,3.4-0.2,4.5-1.5c0,0,0,0,0,0c0.1-0.1,0.1-0.1,0.2-0.2
		c0.2-0.3,0.4-0.6,0.6-0.9c0.2-0.4,0.4-0.8,0.5-1.2c0.2-0.4,0.4-0.7,0.6-1c0.2-0.2,0.4-0.5,0.5-0.7c0.7,0,1.4-0.1,2.1-0.2
		c2.5-0.4,4.8-2.9,6.5-4.5c0.2-0.2,0.4-0.4,0.6-0.7c1.2-1.5,1.4-3.6,0.6-5.6c-0.1-0.2-0.2-0.5-0.3-0.7c2.3-2.4,4.4-5.1,5.9-8.2
		c0.3-0.5,0.5-1,0.7-1.5c0.2,0.5,0.5,1,0.9,1.4c0.7,0.8,1.8,1.2,2.9,1.4c2,0.4,4.3-0.4,5.6-2.3c0.6-0.8,1-1.7,1.2-2.9
		c0.1-0.5,0.1-1.1,0.1-1.6c0.3-2.6,1.1-4.8,2.4-6.6c0.2-0.2,0.3-0.4,0.5-0.6c0.9-1.1,1.8-1.5,2.7-1.5c1.3,0.2,2.6,1.5,3.7,2.8
		c0.7,0.9,1.8,1.4,3,1.5c2,0.4,4.4-0.5,5.5-2.3c0.7-0.9,1-2,0.9-3.2c-0.3-2.8-0.1-5.7,0.8-9c2.1-1.7,4.2-3.6,6.1-5.5
		c1.8,0.1,3.4-0.7,4.4-2.2c0.7-0.9,1.1-2,1.1-3.2c0-0.2,0-0.4,0-0.5c1.1-1.2,2.1-2.4,3.1-3.7c0.7,1.9,2.2,3.1,4.1,3.3
		c2.1,0.4,4.5-0.6,5.6-2.6c0.7-1.1,1-2.4,0.9-3.8c0.2,0,0.4,0.1,0.6,0.1c0,0,0.1,0,0.1,0c0.1,0,0.2,0,0.3,0c3.9,0.4,7-2,9.3-5.1
		c0.7-0.9,1.2-1.8,1.6-2.5c0.8-1.4,0.9-3.2,0.4-4.8c-0.4-1.3-1.3-2.3-2.4-2.8c-1.6-0.7-3.2-1.3-4.7-1.7c0.1-0.2,0.2-0.3,0.3-0.5
		c0.1-0.1,0.1-0.2,0.2-0.3c2-2.1,7.4-2.8,9.8-3.8c1.9-0.8,4-2.5,5.6-4.6c1.7-2.1,2.9-4.6,2.9-6.9c0-1.5-0.6-2.6-1.3-3.6
		c0.4,0.2,0.9,0.3,1.4,0.3c1.8,0.3,3.6-0.6,4.7-2.1c0.1-0.1,0.1-0.2,0.2-0.3c1-1.4,1.3-3.2,0.8-5c0.2-0.3,0.4-0.6,0.5-0.9
		c2.4-5.2,4.1-10.8,5.3-16.9c1.1-0.4,2-1.1,2.7-2.1c0,0,0,0,0,0c0.1-0.1,0.1-0.1,0.2-0.2c1.8-2.7,0.6-7.2-1.3-10
		C546.1,365.5,546.2,360.2,546,353.2z M395.8,307.5c0-0.1,0.1-0.1,0.1-0.2C395.9,307.4,395.8,307.4,395.8,307.5z M260.9,549.6
		C260.9,549.6,260.9,549.6,260.9,549.6c-0.5,0.5-1,1-1.4,1.5C259.9,550.5,260.4,550,260.9,549.6z M259.2,551.4
		c0.1-0.1,0.1-0.2,0.2-0.3C259.4,551.2,259.3,551.3,259.2,551.4z M366,384.6c-0.2,0.2-0.4,0.4-0.6,0.6
		C365.6,385,365.8,384.8,366,384.6C366.1,384.6,366.1,384.6,366,384.6z M333.7,568.4c-0.1,0.1-0.1,0.2-0.2,0.3
		C333.6,568.6,333.7,568.4,333.7,568.4C333.7,568.4,333.7,568.4,333.7,568.4z M459.6,107.9c0.3,0,0.6,0,0.9,0c-0.2,0-0.5,0-0.8,0
		c-0.2,0-0.4,0-0.6,0.1c0,0,0,0,0,0L459.6,107.9z M454.2,104.5c0.1,0,0.2,0,0.3,0c-1.5,0-2.9,0.7-3.9,1.9
		C451.5,105.3,452.8,104.5,454.2,104.5z M443.2,99.1c0.1,0,0.2,0,0.3,0c-0.8,0-1.6,0.2-2.4,0.7c0,0,0,0,0,0l0.1-0.1
		C441.8,99.3,442.5,99.1,443.2,99.1z M437.9,97.9c-0.1,0-0.1,0-0.2,0C437.8,97.9,437.8,97.9,437.9,97.9z M432.4,98.5
		c1.2,0,2.4-0.2,3.5-0.5c0.6-0.2,1.1-0.2,1.7-0.2c-0.5,0-1,0.1-1.6,0.2c-1.7,0.5-3.4,0.5-5.1,0.3C431.4,98.5,431.9,98.5,432.4,98.5z
		 M429.9,98.3c0.2,0,0.3,0.1,0.5,0.1C430.2,98.3,430,98.3,429.9,98.3z M403.1,83.5c0.8,0,1.7-0.1,2.8-0.5c0.4-0.1,0.9-0.2,1.4-0.1
		c-0.5,0-0.9,0-1.3,0.2c-1.3,0.4-2.4,0.5-3.3,0.4C402.7,83.5,402.9,83.5,403.1,83.5z M393.2,74.2c0.3,0,0.5,0,0.8,0.1
		c-1.7-0.2-3.5,0.4-4.5,1.7C390.3,74.7,391.9,74.2,393.2,74.2z M388.1,79.6c-0.1,0.2-0.3,0.3-0.4,0.5c0,0,0,0,0,0
		C387.8,80,387.9,79.8,388.1,79.6z M379.5,71.7c0.1,0,0.2,0,0.3,0c-0.6,0-1.1,0.1-1.7,0.3c0,0-0.1,0-0.1,0
		C378.5,71.8,379,71.7,379.5,71.7z M368.3,63.1c0.3,0,0.6,0,0.8,0.1c-0.5-0.1-1-0.1-1.4,0c0,0,0,0,0,0
		C367.9,63.1,368.1,63.1,368.3,63.1z M359.1,61.8c2.4-1.1,4.4-2,5.8-2c0.1,0,0.3,0,0.4,0c-1.8-0.1-4.6,1.4-7.8,2.8c0,0,0,0,0-0.1
		C358.1,62.3,358.6,62,359.1,61.8z M347.3,65.3c3.1,0,6.3-1.1,9-2.3c0,0,0,0.1,0,0.1c-3.3,1.4-6.9,2.6-10.5,2.1
		C346.3,65.2,346.8,65.3,347.3,65.3z M330,55.6c0.4,0,0.7,0,1.1,0.1c-2.1-0.2-4.3,0.4-5.7,2.2C326.4,56.4,328.1,55.6,330,55.6z
		 M324.7,58.7l0.2,0c0,0,0,0.1-0.1,0.1c-6,1.5-11.8,5.4-15.7,10.5C312.9,64.1,318.7,60.1,324.7,58.7z M284.7,75.3l0.3,0l0.2-0.2
		c1.8-2.1,3.9-3.6,5.9-4.5c1.8-0.8,3.5-1.1,5.3-1.1c0.4,0,0.8,0,1.2,0.1c-2.1-0.2-4.3,0.2-6.5,1.1c-2.2,1-4.3,2.6-6.1,4.7
		c-0.5-0.1-1-0.1-1.4-0.1C283.9,75.2,284.3,75.2,284.7,75.3z M297.9,69.6c-0.1,0-0.2,0-0.2,0C297.7,69.5,297.8,69.6,297.9,69.6z
		 M280.3,75c0.9,0,1.9,0,2.8,0.1c-8.9-0.6-18.5,1.9-24.2,7.9c0,0,0,0,0,0l0.2-0.2C263.8,77.9,271.5,75,280.3,75z M251,82
		c1.2,0,2.3,0.1,3.4,0.2c-9.6-1.1-20.1,2.9-25.6,9.8c0,0,0,0,0,0l0.2-0.2C233.7,85.8,242.3,82,251,82z M220,95.3
		c2.6-2.1,5.3-4.2,6.9-4.2c0.1,0,0.2,0,0.3,0c-4-0.1-12,10.3-16.9,9.5c0.1,0,0.2,0,0.4,0C213.5,100.6,216.8,97.9,220,95.3z
		 M204,99.5c0.6,0,1.2,0,1.8,0.1c-4.7-0.4-9.2,1-12,4.3c0,0,0,0,0,0l0.2-0.2C196.2,101,199.9,99.5,204,99.5z M190.2,103.3
		c0.3,0,0.7,0,1,0.1c-4.7-0.4-9.4,2.6-13.1,7.1C181.5,106.3,185.8,103.3,190.2,103.3z M172,121.4L172,121.4
		c-0.1,0.1-0.2,0.1-0.3,0.2c-2.6,1-4.8,2.7-6.5,4.9C167,124.1,169.3,122.3,172,121.4z M146.4,133.9c3.5-2.4,7.3-3.7,10.7-3.7
		c0.5,0,0.9,0,1.4,0.1c-4.3-0.4-8.6,1.4-12.1,3.8c-2.9,2-5.7,4.7-8.1,7.9C140.6,138.7,143.6,135.9,146.4,133.9z M127.5,175.3
		L127.5,175.3C127.6,175.4,127.6,175.4,127.5,175.3c-5.8,2-11,6.2-15.3,11.3C116.4,181.6,121.6,177.3,127.5,175.3z M93.8,209
		c2.3-2.6,5.1-4.1,7.8-4.2l0.2,0c0,0,0,0,0,0c-2.8,0.1-5.8,1.7-8.2,4.4c-0.5,0.6-1,1.2-1.5,1.8C92.7,210.3,93.2,209.7,93.8,209z
		 M87.1,213.6c0.6-0.5,1.5-0.7,2.5-0.6c-0.9,0-1.8,0.2-2.6,0.7c-1.8,1.3-3.4,2.8-4.7,4.5C83.8,216.2,85.6,214.7,87.1,213.6z
		 M83.6,279C83.6,279,83.6,279,83.6,279c-0.3,0.3-0.6,0.7-0.8,1C83,279.7,83.3,279.3,83.6,279z M105,401.4
		C105.1,401.4,105.1,401.4,105,401.4c-1.8,1.5-3.5,3.1-4.9,4.9C101.4,404.6,103,403,105,401.4z M99.6,407c0.1-0.1,0.2-0.2,0.2-0.4
		C99.8,406.8,99.7,406.9,99.6,407z M228.5,522C228.5,522,228.5,522,228.5,522c-0.3,0.5-0.7,0.9-1.1,1.4c-0.1,0.1-0.2,0.3-0.3,0.4
		c0.1-0.2,0.3-0.4,0.5-0.6C227.9,522.8,228.2,522.4,228.5,522z M308,451.5c-1.1-0.1-2.9-0.2-4.8-0.3c0,0,0,0,0,0
		C305.2,451.3,307,451.4,308,451.5z M405.9,258.1l0.1,0c0,0,0,0,0,0.1c-1,0.2-1.9,0.7-2.6,1.6C404.1,258.7,405.1,258.3,405.9,258.1z
		 M398.9,303.1c0.6-0.8,1.5-1.2,2.4-1.3c0,0,0,0,0,0.1c-0.9,0.2-1.8,0.6-2.5,1.5c-0.2,0.3-0.5,0.6-0.7,0.9
		C398.3,303.8,398.6,303.4,398.9,303.1z M396.8,332.9C396.8,332.9,396.8,333,396.8,332.9c-0.3,0.3-0.5,0.5-0.8,0.8
		C396.2,333.4,396.5,333.1,396.8,332.9z M370.4,379C370.3,379.1,370.3,379.1,370.4,379c-0.9,0.7-1.7,1.3-2.3,2.1
		C368.7,380.3,369.5,379.6,370.4,379z M367.7,381.6c0.1-0.1,0.2-0.3,0.3-0.4C367.9,381.3,367.8,381.5,367.7,381.6z M363.9,389.4
		c-0.4,0-0.7,0.1-0.9,0.3c0-0.1,0.1-0.2,0.1-0.2C363.3,389.4,363.6,389.4,363.9,389.4z M361,492.1c0.2,0,0.4,0,0.6,0
		c-1.6-0.1-3.3,0.5-4.4,1.8C358.2,492.7,359.7,492.1,361,492.1z M355.6,499.6l0.1,0c0,0,0,0,0,0.1c-0.9,0.2-1.7,0.7-2.3,1.4
		C354,500.2,354.9,499.8,355.6,499.6z M342.1,522.1c2.3-0.8,4.3-2,6.1-3.6c0,0,0,0.1-0.1,0.1C346.5,520.1,344.5,521.3,342.1,522.1
		c-1.1,0.4-1.9,1.1-2.5,1.8C340,523.2,340.8,522.5,342.1,522.1z M333.5,532.5l1.1-0.6c1.6-0.8,3.2-1.6,4.9-2.5c0,0,0,0,0,0.1
		C337.4,530.6,335.4,531.6,333.5,532.5c-0.6,0.4-1.1,0.8-1.5,1.3C332.3,533.4,332.7,532.9,333.5,532.5z M334.7,552.5
		c0.4-0.2,0.8-0.5,1-0.7c0,0,0,0.1,0,0.1C335.4,552.2,335.1,552.4,334.7,552.5c-0.6,0.4-1.1,0.8-1.4,1.3
		C333.7,553.3,334.1,552.9,334.7,552.5z"/>
</g>
<g id="Lashes">
	<g>
		<g>
			<path class="st12" d="M386.3,265.9c0,3.1-2.5,5.7-5.6,5.7"/>
			<path class="st12" d="M383.3,262.9c0,0.5,0,6-5.7,6"/>
			<path class="st12" d="M380,270.9"/>
			<path class="st12" d="M385.6,265.2"/>
			<path class="st12" d="M384.8,264.6c0,4,0,5.7-5.6,5.7"/>
			<path class="st12" d="M384.1,265.7c0,3.1-2.6,3.9-5.6,3.9"/>
		</g>
		<g>
			<path class="st12" d="M357.8,256c1.7,2.4,1.8,5.9-0.4,7.5"/>
			<path class="st12" d="M354.2,256.8c1.7,2.4,1.2,6.2-1,7.8"/>
			<path class="st12" d="M356.4,256c1,2.4,1.7,5.7-0.5,7.2"/>
			<path class="st12" d="M355.2,263.9"/>
			<path class="st12" d="M356.1,256.7"/>
			<path class="st12" d="M355.2,256.6c1.7,2.4,1.3,5.6-0.9,7.2"/>
		</g>
		<g>
			<path class="st12" d="M377.5,259.2c0.7,3.3-1.2,6.1-4.8,6.8"/>
			<path class="st12" d="M373,257.4c0.7,3.3-0.4,6.3-4.1,7.1"/>
			<path class="st12" d="M376.5,258.7c0.7,3.3-1.2,6-4.9,6.8"/>
			<path class="st12" d="M375.4,258.2c0.7,3.3-1.4,6-5.1,6.8"/>
			<path class="st12" d="M374.4,257.7c0.7,3.3-1.4,6.1-5.1,6.9"/>
		</g>
		<g>
			<path class="st12" d="M363.3,255.6c1.8,2.6,1.2,6.1-1.2,7.8"/>
			<path class="st12" d="M359.2,256c1.8,2.6,1.2,6.1-1.2,7.8"/>
			<path class="st12" d="M362.4,255.5c1.8,2.6,1.2,6.1-1.2,7.8"/>
			<path class="st12" d="M360.2,263.1"/>
			<path class="st12" d="M361.4,255.3"/>
			<path class="st12" d="M360.4,255.2c1.8,2.6,2.2,6.3-0.2,7.9"/>
		</g>
		<g>
			<path class="st12" d="M371,256.7c1.4,3.2,0.9,5.8-2.3,7.2"/>
			<path class="st12" d="M365.6,256c1.4,3.2,0.9,6.1-2.2,7.5"/>
			<path class="st12" d="M370,256c1.4,3.2-0.1,6.9-3.7,7.6"/>
			<path class="st12" d="M368.2,255.6c2.1,2.8,0,6.9-3.1,8.3"/>
			<path class="st12" d="M367.2,255.3c1.4,3.2,0,6.9-3.1,8.3"/>
		</g>
		<g>
			<path class="st12" d="M382.1,262.4c0.3,3.1-1.9,5.9-4.9,6.2"/>
			<path class="st12" d="M378.8,261c0.3,3.1-2.2,5.4-5.2,5.8"/>
			<path class="st12" d="M381.3,261.8c0.3,3.1-1.9,5.9-4.9,6.2"/>
			<path class="st12" d="M375.5,267.5"/>
			<path class="st12" d="M380.5,261.3"/>
			<path class="st12" d="M379.6,260.7c0.5,4.5-1,5.8-4.9,6.2"/>
		</g>
		<g>
			<path class="st12" d="M353.2,264.6"/>
			<path class="st12" d="M352.5,257.4"/>
			<path class="st12" d="M349,259.5c2.3,1.9,2.4,4.7,0.7,6.8"/>
			<path class="st12" d="M352.5,257.4c0.9,0.8,3.1,3.6,0,7.2"/>
			<path class="st12" d="M351.3,258.4c2.3,1.9,2,4.3,0.2,6.4"/>
			<path class="st12" d="M350.2,258.9c2.3,1.9,1.7,5.1-0.1,7.2"/>
		</g>
		<g>
			<path class="st12" d="M344.2,262.6c1.6,1.6,2.7,3.8-0.6,7.5"/>
			<path class="st12" d="M340.3,265.3c1.8,1.4,2.1,5.2,0.2,7.7"/>
			<path class="st12" d="M342.9,263.5c1.8,1.4,1.8,4.5-0.1,6.9"/>
			<path class="st12" d="M341.9,270.7"/>
			<path class="st12" d="M342,263.8"/>
			<path class="st12" d="M341.2,264.1c1.8,1.4,2.4,5.1,0.6,7.5"/>
		</g>
		<g>
			<path class="st12" d="M347.7,260.2c0.3,0.2,2.7,1,2.1,5.3"/>
			<path class="st12" d="M344.8,269"/>
			<path class="st12" d="M344.2,262.6"/>
			<path class="st12" d="M346.6,261c1.8,1.4,3.1,3.5,1.2,5.9"/>
			<path class="st12" d="M345.8,261.3c1.8,1.4,2,5.1,0.1,7.5"/>
			<path class="st12" d="M345.2,262.1c1.8,1.4,1.8,4.5-0.1,6.9"/>
		</g>
	</g>
	<g>
		<g>
			<path class="st12" d="M249,275.4c0-1.5,1.2-3,4.3-2.1"/>
			<path class="st12" d="M252.9,278.2c0.6-1.8,1.6-2.9,3.5-3.1"/>
			<path class="st12" d="M250.2,276.1c0-1.8,1.2-3.1,4-2.5"/>
			<path class="st12" d="M257.5,274.4"/>
			<path class="st12" d="M250.3,276.9"/>
			<path class="st12" d="M251.5,277c0.2-1.8,0.9-2.8,3.3-2.5"/>
		</g>
		<g>
			<path class="st12" d="M254.4,279.4c-0.3-2.1,0.6-3.1,2.7-3.7"/>
			<path class="st12" d="M258.6,281c0.2-2.1,2.2-2.2,3.3-3"/>
			<path class="st12" d="M255.5,279.9c-0.3-2.1,0.9-3.1,2.7-3.7"/>
			<path class="st12" d="M263.3,276.9"/>
			<path class="st12" d="M256.5,280.4"/>
			<path class="st12" d="M257.6,280.9c-0.3-2.1,0.2-2.7,2.2-3.5"/>
		</g>
		<g>
			<path class="st12" d="M260.4,282.3c-0.3-2.1-0.2-3.1,3.9-2.9"/>
			<path class="st12" d="M265.7,283.9c-0.3-2.1,3.1-4.3,7.2-4.1"/>
			<path class="st12" d="M261.5,282.8c-0.3-2.1,0.8-3.3,4.9-3.1"/>
			<path class="st12" d="M269.4,279.8"/>
			<path class="st12" d="M262.6,283.3"/>
			<path class="st12" d="M263.7,283.8c-0.3-2.1,0.8-3.8,4.8-3.6"/>
		</g>
		<g>
			<path class="st12" d="M268.4,284.7c-1.2-1.8-0.8-3.2,2.9-4.7"/>
			<path class="st12" d="M273.8,283.9c-1.2-1.8-1.1-3.2,2.7-4.8"/>
			<path class="st12" d="M269.6,284.7c-1.2-1.8-0.1-3.3,3.7-4.9"/>
			<path class="st12" d="M275.4,278.6"/>
			<path class="st12" d="M270.8,284.7"/>
			<path class="st12" d="M271.9,284.7c-1.2-1.8-0.3-4,3.5-5.6"/>
		</g>
		<g>
			<path class="st12" d="M277.2,284.9c-2-0.8-3.5-2.4-1.3-5.8"/>
			<path class="st12" d="M281,282.5c-0.8-0.4-2.6-2-0.5-4.4"/>
			<path class="st12" d="M278.1,283.7c-0.6-0.3-3.3-0.6-0.1-4.8"/>
			<path class="st12" d="M279.6,275.9"/>
			<path class="st12" d="M279.1,283.5"/>
			<path class="st12" d="M280.1,282.9c-2-0.8-1.8-1.4-1.3-4.5"/>
		</g>
		<g>
			<path class="st12" d="M281.6,282c-1.3-1.7,0.6-4.8,4.3-6.5"/>
			<path class="st12" d="M286.9,280.7c-1.3-1.7-0.8-5.3,2.8-7.1"/>
			<path class="st12" d="M282.7,281.7c-1.3-1.7,0.7-4.5,4.4-6.3"/>
			<path class="st12" d="M288.2,275.4"/>
			<path class="st12" d="M283.9,281.6"/>
			<path class="st12" d="M285.1,281.5c-1.3-1.7-1.3-5.2,2.4-7"/>
		</g>
	</g>
	<g>
		<g>
			<path class="st12" d="M383.8,276.1c0-1.5-1.3-3-4.3-2"/>
			<path class="st12" d="M379.9,279c-0.6-1.8-1.7-2.9-3.5-3.1"/>
			<path class="st12" d="M382.5,276.8c0-1.8-1.3-3-4.1-2.5"/>
			<path class="st12" d="M382.5,277.6"/>
			<path class="st12" d="M381.3,277.7c-0.2-1.8-1-2.8-3.3-2.5"/>
		</g>
		<g>
			<path class="st12" d="M378.4,280.2c0.3-2.1-0.6-3.1-2.8-3.6"/>
			<path class="st12" d="M374.2,281.8c-0.3-2.1-2.2-2.2-3.4-2.9"/>
			<path class="st12" d="M377.4,280.7c0.3-2.1-1-3.1-2.8-3.6"/>
			<path class="st12" d="M376.3,281.2"/>
			<path class="st12" d="M375.2,281.7c0.3-2.1-0.3-2.7-2.3-3.5"/>
		</g>
		<g>
			<path class="st12" d="M372.4,283.2c0.3-2.1-0.8-3.4-4.8-3.1"/>
			<path class="st12" d="M367.2,284.8c0.3-2.1-3.2-4.3-7.2-4"/>
			<path class="st12" d="M371.4,283.7c0.3-2.1-1.4-3.5-5.5-3.2"/>
			<path class="st12" d="M363.5,280.8"/>
			<path class="st12" d="M370.3,284.2"/>
			<path class="st12" d="M369.2,284.7c0.3-2.1-2.4-4.1-6.5-3.9"/>
		</g>
		<g>
			<path class="st12" d="M364.5,285.7c1.1-1.8-0.2-3.4-3.9-4.9"/>
			<path class="st12" d="M359.1,285c1.1-1.8,0.7-3.7-3.1-5.2"/>
			<path class="st12" d="M363.3,285.7c1.1-1.8-0.2-3.7-4-5.2"/>
			<path class="st12" d="M357.4,279.7"/>
			<path class="st12" d="M362.2,285.7"/>
			<path class="st12" d="M361,285.7c1.1-1.8,0.2-4-3.5-5.5"/>
		</g>
		<g>
			<path class="st12" d="M355.7,286c2-0.8,3.4-2.5,1.2-5.8"/>
			<path class="st12" d="M351.9,283.7c0.8-0.4,2.6-2.1,0.4-4.4"/>
			<path class="st12" d="M354.8,284.8c0.6-0.3,3.4-1.3,0.2-5.4"/>
			<path class="st12" d="M353.8,284.7"/>
			<path class="st12" d="M352.8,284c2-0.8,1.7-1.4,1.2-4.5"/>
		</g>
		<g>
			<path class="st12" d="M351.3,283.2c1.2-1.7-0.7-4.8-4.4-6.4"/>
			<path class="st12" d="M346,281.9c1.2-1.7,0.6-6-3.1-7.6"/>
			<path class="st12" d="M350.2,282.9c1.2-1.7-0.6-5.1-4.3-6.7"/>
			<path class="st12" d="M344.5,276.6"/>
			<path class="st12" d="M349,282.8"/>
			<path class="st12" d="M347.8,282.8c1.2-1.7,1.2-5.3-2.5-6.9"/>
		</g>
	</g>
	<g>
		<path class="st12" d="M247,264.2c0.3,3.6,2,3.3,5.6,5.7"/>
		<g>
			<g>
				<path class="st12" d="M246.2,264.9c0,3.1,2.5,5.7,5.6,5.7"/>
				<path class="st12" d="M249.3,261.9c0,0.5-0.9,4.2,5.7,6"/>
				<path class="st12" d="M252.5,269.9"/>
				<path class="st12" d="M247,264.2"/>
				<path class="st12" d="M247.8,263.6c0,3.1,5.1,5.7,5.6,5.7"/>
				<path class="st12" d="M254.1,268.6"/>
				<path class="st12" d="M248.5,262.9"/>
			</g>
			<g>
				<path class="st12" d="M275.2,262.5"/>
				<path class="st12" d="M274.6,256"/>
				<path class="st12" d="M279.4,263.6"/>
				<path class="st12" d="M278.4,255.8"/>
				<path class="st12" d="M275.2,254.9c-1.7,2.4-1.8,5.8,0.4,7.4"/>
				<path class="st12" d="M276.9,256c-1.7,2.4-1.7,5.3,0.5,6.9"/>
				<path class="st12" d="M278,255.7c-1.2,2.4-2.2,6,0,7.5"/>
			</g>
			<g>
				<path class="st12" d="M255,258.2c-0.7,3.3,1.2,6.1,4.8,6.8"/>
				<path class="st12" d="M259.6,256.4c-0.7,3.3,0.4,6.3,4.1,7.1"/>
				<path class="st12" d="M261,264.5"/>
				<path class="st12" d="M256.1,257.7"/>
				<path class="st12" d="M257.1,257.2c-0.7,3.3,1.4,6,5.1,6.8"/>
				<path class="st12" d="M258.2,256.7c-0.7,3.3,1.4,6.1,5.1,6.9"/>
			</g>
			<g>
				<path class="st12" d="M269.2,254.6c-1.8,2.6-1.2,6.1,1.2,7.8"/>
				<path class="st12" d="M273.4,255c-1.8,2.6-1.2,6.1,1.2,7.8"/>
				<path class="st12" d="M271.4,262.3"/>
				<path class="st12" d="M270.2,254.5"/>
				<path class="st12" d="M271.2,254.3c-1.8,2.6-1.2,6.1,1.2,7.8"/>
				<path class="st12" d="M272.2,254.2c-1.8,2.6-1.2,6.1,1.2,7.8"/>
			</g>
			<g>
				<path class="st12" d="M261.5,255.7c-1.4,3.2-0.9,5.8,2.3,7.2"/>
				<path class="st12" d="M267,255c-1.4,3.2-0.9,6.1,2.2,7.5"/>
				<path class="st12" d="M263.3,254.9c-1.4,3.2,0,6.9,3.1,8.3"/>
				<path class="st12" d="M264.3,254.6c-1.4,3.2,0,6.9,3.1,8.3"/>
				<path class="st12" d="M265.4,254.3c-1.4,3.2,0,6.9,3.1,8.3"/>
			</g>
			<g>
				<path class="st12" d="M255.4,267.6"/>
				<path class="st12" d="M250.5,261.4"/>
				<path class="st12" d="M258.9,265.8"/>
				<path class="st12" d="M254.5,259.9"/>
				<path class="st12" d="M251.3,260.8c-0.3,3.1,2.7,4.7,4.9,6.2"/>
				<path class="st12" d="M257,266.5"/>
				<path class="st12" d="M252.1,260.3"/>
				<path class="st12" d="M252.9,259.7c-0.3,3.1,1.9,5.9,4.9,6.2"/>
			</g>
			<g>
				<path class="st12" d="M280.1,256.4c-1.4-0.1-3.5,3.9-0.7,7.2"/>
				<path class="st12" d="M282.9,265.3"/>
				<path class="st12" d="M284.2,258.9"/>
				<path class="st12" d="M281.4,256.7c-0.9,0.8-4.4,3.2-1.3,6.9"/>
				<path class="st12" d="M282.5,257.7c-2.3,1.9-2.7,4.8-0.9,6.9"/>
				<path class="st12" d="M283.4,257.8c-2.3,1.9-2.7,5.1-0.9,7.2"/>
			</g>
			<g>
				<path class="st12" d="M289,269.1"/>
				<path class="st12" d="M288.8,262.2"/>
				<path class="st12" d="M292.3,264.3c-1.8,1.4-2.1,5.2-0.2,7.7"/>
				<path class="st12" d="M289.7,262.5c-1.8,1.4-1.8,4.5,0.1,6.9"/>
				<path class="st12" d="M290.7,269.7"/>
				<path class="st12" d="M290.5,262.8"/>
				<path class="st12" d="M291.4,263.1c-1.8,1.4-2.4,5.1-0.6,7.5"/>
			</g>
			<g>
				<path class="st12" d="M285.7,259.3c-0.3,0.2-5.4,1.6-1.8,6.2"/>
				<path class="st12" d="M288.4,261.6c-1.8,1.4-2.5,4-0.6,6.4"/>
				<path class="st12" d="M285.9,260c-1.8,1.4-3.1,3.5-1.2,5.9"/>
				<path class="st12" d="M286.5,260.8c-1.8,1.4-1.8,4.5,0.1,6.9"/>
				<path class="st12" d="M287.5,268"/>
				<path class="st12" d="M287.4,261.1"/>
			</g>
			<path class="st12" d="M256,258.2c0.3,3.6,1.1,3.9,4.7,6.2"/>
		</g>
	</g>
</g>
<g id="Liner">
	<path class="st13" d="M250.9,270.8c0.2-1.9,24.8-21.5,41.9,3.1"/>
	<path class="st13" d="M381.7,271.8c-1.3-1.2-20.4-22.5-41.9,2.1"/>
</g>
<g id="Freckles">
	<ellipse class="st14" cx="339" cy="228.9" rx="0.7" ry="0.8"/>
	<ellipse class="st15" cx="356.4" cy="364.4" rx="0.6" ry="0.6"/>
	
		<ellipse transform="matrix(0.5469 -0.8372 0.8372 0.5469 -136.9327 408.282)" class="st16" cx="308.7" cy="330.6" rx="0.6" ry="1.1"/>
	<ellipse class="st17" cx="333.1" cy="406.6" rx="0.8" ry="0.8"/>
</g>
</svg>
