<?xml version="1.0" encoding="utf-8"?>
<!-- Generator: Adobe Illustrator 17.0.2, SVG Export Plug-In . SVG Version: 6.00 Build 0)  -->
<!DOCTYPE svg PUBLIC "-//W3C//DTD SVG 1.1//EN" "http://www.w3.org/Graphics/SVG/1.1/DTD/svg11.dtd">
<svg version="1.1" id="Layer_1" xmlns="http://www.w3.org/2000/svg" xmlns:xlink="http://www.w3.org/1999/xlink" x="0px" y="0px"
	 width="154.112px" height="87.531px" viewBox="0 0 154.112 87.531" enable-background="new 0 0 154.112 87.531"
	 xml:space="preserve">
<g>
	<path id="Top_1_" fill="#ADADAD" d="M138.119,83.961c0,1.438-0.388,2.135-1.826,2.135H17.146c-1.438,0-2.607-0.697-2.607-2.135
		V2.603C14.539,1.165,15.706,0,17.146,0h119.147c1.438,0,1.826,1.165,1.826,2.603C138.119,2.603,138.119,83.961,138.119,83.961z"/>
	<path id="Screen_Border_1_" fill="#070707" stroke="#000000" stroke-miterlimit="10" d="M137.392,82.983
		c0,1.438-0.411,2.395-1.839,2.395H18.416c-1.428,0-3.151-0.956-3.151-2.395V3.58c0-1.438,1.724-2.863,3.151-2.863h117.136
		c1.428,0,1.839,1.425,1.839,2.863V82.983z"/>
	<path id="Notch_1_" fill="#ADADAD" d="M154.112,85.883c0,0.993-1.458,1.647-3.076,1.647H3.126C1.508,87.531,0,86.876,0,85.883
		v-1.949c0-0.993,1.509-2.144,3.126-2.144h147.909c1.618,0,3.076,1.149,3.076,2.144V85.883z"/>
	<path id="Base_1_" fill="#8E8D8D" d="M87.233,83.022c0,0.722-0.016,0.204-0.406,0.204h-20.59c0,0-0.103,0.265-0.308-0.347
		l-0.058-0.28c-0.439-1.003,0.077-0.809,0.368-0.809h20.59c1,0,0.406,0.39,0.406,1.155v0.078H87.233z"/>
	<g>
		<rect x="121.46" y="68.449" fill="#232323" width="11" height="7"/>
		<rect x="110.46" y="68.449" fill="#232323" width="11" height="7"/>
		<rect x="99.46" y="68.449" fill="#1F1F1F" width="11" height="7"/>
		<rect x="87.46" y="68.449" fill="#383838" width="12" height="7"/>
		<rect x="76.46" y="68.449" fill="#08171E" width="11" height="7"/>
		<rect x="65.46" y="68.449" fill="#08171E" width="11" height="7"/>
		<rect x="54.46" y="68.449" fill="#0B2029" width="11" height="7"/>
		<rect x="43.46" y="68.449" fill="#0B2029" width="11" height="7"/>
		<rect x="31.46" y="68.449" fill="#0B2029" width="12" height="7"/>
		<rect x="20.46" y="68.449" fill="#073642" width="11" height="7"/>
		<rect x="121.46" y="61.449" fill="#2E077E" width="11" height="7"/>
		<rect x="110.46" y="61.449" fill="#253056" width="11" height="7"/>
		<rect x="99.46" y="61.449" fill="#1B0E5D" width="11" height="7"/>
		<rect x="87.46" y="61.449" fill="#221564" width="12" height="7"/>
		<rect x="76.46" y="61.449" fill="#140F60" width="11" height="7"/>
		<rect x="65.46" y="61.449" fill="#140F60" width="11" height="7"/>
		<rect x="54.46" y="61.449" fill="#002B36" width="11" height="7"/>
		<rect x="43.46" y="61.449" fill="#0B2029" width="11" height="7"/>
		<rect x="31.46" y="61.449" fill="#152931" width="12" height="7"/>
		<rect x="20.46" y="61.449" fill="#073642" width="11" height="7"/>
		<rect x="121.46" y="54.449" fill="#3F2C84" width="11" height="7"/>
		<rect x="110.46" y="54.449" fill="#3D357C" width="11" height="7"/>
		<rect x="99.46" y="54.449" fill="#1B0E5D" width="11" height="7"/>
		<rect x="87.46" y="54.449" fill="#221564" width="12" height="7"/>
		<rect x="76.46" y="54.449" fill="#140F60" width="11" height="7"/>
		<rect x="65.46" y="54.449" fill="#140F60" width="11" height="7"/>
		<rect x="54.46" y="54.449" fill="#002B36" width="11" height="7"/>
		<rect x="43.46" y="54.449" fill="#0B2029" width="11" height="7"/>
		<rect x="31.46" y="54.449" fill="#153754" width="12" height="7"/>
		<rect x="20.46" y="54.449" fill="#073642" width="11" height="7"/>
		<rect x="121.46" y="47.449" fill="#1E1160" width="11" height="7"/>
		<rect x="110.46" y="47.449" fill="#1E1160" width="11" height="7"/>
		<rect x="99.46" y="47.449" fill="#1B0E5D" width="11" height="7"/>
		<rect x="87.46" y="47.449" fill="#221564" width="12" height="7"/>
		<rect x="76.46" y="47.449" fill="#140F60" width="11" height="7"/>
		<rect x="65.46" y="47.449" fill="#160D5D" width="11" height="7"/>
		<rect x="54.46" y="47.449" fill="#193E61" width="11" height="7"/>
		<rect x="43.46" y="47.449" fill="#153551" width="11" height="7"/>
		<rect x="31.46" y="47.449" fill="#183C5D" width="12" height="7"/>
		<rect x="20.46" y="47.449" fill="#073642" width="11" height="7"/>
		<rect x="121.46" y="41.449" fill="#1E1160" width="11" height="6"/>
		<rect x="110.46" y="41.449" fill="#1E1160" width="11" height="6"/>
		<rect x="99.46" y="41.449" fill="#1B0E5D" width="11" height="6"/>
		<rect x="87.46" y="41.449" fill="#221564" width="12" height="6"/>
		<rect x="76.46" y="41.449" fill="#160D5D" width="11" height="6"/>
		<rect x="65.46" y="41.449" fill="#160D5D" width="11" height="6"/>
		<rect x="54.46" y="41.449" fill="#0B2029" width="11" height="6"/>
		<rect x="43.46" y="41.449" fill="#283C43" width="11" height="6"/>
		<rect x="31.46" y="41.449" fill="#1C3220" width="12" height="6"/>
		<rect x="20.46" y="41.449" fill="#073642" width="11" height="6"/>
		<rect x="121.46" y="34.449" fill="#1E1160" width="11" height="7"/>
		<rect x="110.46" y="34.449" fill="#32225B" width="11" height="7"/>
		<rect x="99.46" y="34.449" fill="#2E1D59" width="11" height="7"/>
		<rect x="87.46" y="34.449" fill="#2D1E60" width="12" height="7"/>
		<rect x="76.46" y="34.449" fill="#160D5D" width="11" height="7"/>
		<rect x="65.46" y="34.449" fill="#160D5D" width="11" height="7"/>
		<rect x="54.46" y="34.449" fill="#0B2029" width="11" height="7"/>
		<rect x="43.46" y="34.449" fill="#0B2029" width="11" height="7"/>
		<rect x="31.46" y="34.449" fill="#0B2029" width="12" height="7"/>
		<rect x="20.46" y="34.449" fill="#073642" width="11" height="7"/>
		<rect x="121.46" y="27.449" fill="#350F55" width="11" height="7"/>
		<rect x="110.46" y="27.449" fill="#1E1160" width="11" height="7"/>
		<rect x="99.46" y="27.449" fill="#242562" width="11" height="7"/>
		<rect x="87.46" y="27.449" fill="#221564" width="12" height="7"/>
		<rect x="76.46" y="27.449" fill="#19155E" width="11" height="7"/>
		<rect x="65.46" y="27.449" fill="#160D5D" width="11" height="7"/>
		<rect x="54.46" y="27.449" fill="#0B2029" width="11" height="7"/>
		<rect x="43.46" y="27.449" fill="#0B2029" width="11" height="7"/>
		<rect x="31.46" y="27.449" fill="#0B2029" width="12" height="7"/>
		<rect x="20.46" y="27.449" fill="#073642" width="11" height="7"/>
		<rect x="121.46" y="20.449" fill="#240F5C" width="11" height="7"/>
		<rect x="110.46" y="20.449" fill="#240F5C" width="11" height="7"/>
		<rect x="99.46" y="20.449" fill="#2D0B54" width="11" height="7"/>
		<rect x="87.46" y="20.449" fill="#221564" width="12" height="7"/>
		<rect x="76.46" y="20.449" fill="#140F60" width="11" height="7"/>
		<rect x="65.46" y="20.449" fill="#1D1E61" width="11" height="7"/>
		<rect x="54.46" y="20.449" fill="#0B2029" width="11" height="7"/>
		<rect x="43.46" y="20.449" fill="#184345" width="11" height="7"/>
		<rect x="31.46" y="20.449" fill="#182D35" width="12" height="7"/>
		<rect x="20.46" y="20.449" fill="#073642" width="11" height="7"/>
		<rect x="121.46" y="13.449" fill="#DEDEDE" width="11" height="7"/>
		<rect x="110.46" y="13.449" fill="#DEDEDE" width="11" height="7"/>
		<rect x="99.46" y="13.449" fill="#DEDEDE" width="11" height="7"/>
		<rect x="87.46" y="13.449" fill="#DEDEDE" width="12" height="7"/>
		<rect x="76.46" y="13.449" fill="#DEDEDE" width="11" height="7"/>
		<rect x="65.46" y="13.449" fill="#DEDEDE" width="11" height="7"/>
		<rect x="54.46" y="13.449" fill="#0B2029" width="11" height="7"/>
		<rect x="43.46" y="13.449" fill="#0B2029" width="11" height="7"/>
		<rect x="31.46" y="13.449" fill="#0B2029" width="12" height="7"/>
		<rect x="20.46" y="13.449" fill="#073642" width="11" height="7"/>
		<rect x="121.46" y="7.449" fill="#6D6D6D" width="11" height="6"/>
		<rect x="110.46" y="7.449" fill="#4E4E4E" width="11" height="6"/>
		<rect x="99.46" y="7.449" fill="#4F4F4F" width="11" height="6"/>
		<rect x="87.46" y="7.449" fill="#4F4F4F" width="12" height="6"/>
		<rect x="76.46" y="7.449" fill="#F4F4F4" width="11" height="6"/>
		<rect x="65.46" y="7.449" fill="#F4F4F4" width="11" height="6"/>
		<rect x="54.46" y="7.449" fill="#DFDFE0" width="11" height="6"/>
		<rect x="43.46" y="7.449" fill="#E0E0E0" width="11" height="6"/>
		<rect x="31.46" y="7.449" fill="#F4F4F4" width="12" height="6"/>
		<rect x="20.46" y="7.449" fill="#E1E1E1" width="11" height="6"/>
	</g>
</g>
</svg>
