<?xml version="1.0" encoding="utf-8"?>
<!-- Generator: Adobe Illustrator 17.0.2, SVG Export Plug-In . SVG Version: 6.00 Build 0)  -->
<!DOCTYPE svg PUBLIC "-//W3C//DTD SVG 1.1//EN" "http://www.w3.org/Graphics/SVG/1.1/DTD/svg11.dtd">
<svg version="1.1" id="Layer_1" xmlns="http://www.w3.org/2000/svg" xmlns:xlink="http://www.w3.org/1999/xlink" x="0px" y="0px"
	 width="48px" height="48px" viewBox="9.5 9.5 48 48" enable-background="new 9.5 9.5 48 48" xml:space="preserve">
<path fill="#72C19F" stroke="none" stroke-miterlimit="10" d="M36.76,24.521c-2.001,0.73-3.266,2.614-3.122,4.675l0.048,0.795
	l-0.801-0.097c-2.914-0.373-5.46-1.639-7.621-3.766l-1.057-1.055l-0.272,0.779c-0.576,1.737-0.208,3.572,0.993,4.805
	c0.64,0.682,0.496,0.779-0.608,0.373c-0.384-0.13-0.721-0.227-0.753-0.179c-0.112,0.114,0.272,1.591,0.576,2.175
	c0.416,0.812,1.265,1.607,2.194,2.078l0.785,0.373l-0.928,0.016c-0.896,0-0.928,0.016-0.832,0.358
	c0.32,1.055,1.585,2.175,2.994,2.663l0.993,0.34l-0.864,0.52c-1.281,0.748-2.786,1.169-4.291,1.202
	c-0.721,0.015-1.314,0.08-1.314,0.129c0,0.162,1.954,1.07,3.09,1.428c3.41,1.055,7.462,0.6,10.504-1.202
	c2.162-1.282,4.323-3.831,5.332-6.3c0.545-1.315,1.089-3.717,1.089-4.869c0-0.747,0.048-0.844,0.944-1.737
	c0.529-0.52,1.025-1.087,1.121-1.25c0.16-0.309,0.144-0.309-0.672-0.033c-1.361,0.487-1.553,0.422-0.88-0.308
	c0.496-0.52,1.089-1.461,1.089-1.737c0-0.048-0.24,0.032-0.513,0.179c-0.288,0.162-0.928,0.406-1.409,0.552l-0.864,0.277
	l-0.785-0.536c-0.432-0.292-1.04-0.617-1.361-0.714C38.746,24.23,37.497,24.262,36.76,24.521z M33.576,56.488
	c-12.66,0-22.924-10.292-22.924-22.988s10.264-22.988,22.924-22.988S56.5,20.803,56.5,33.5S46.236,56.488,33.576,56.488z"/>
</svg>
